<svg width="318" height="952" viewBox="0 0 318 952" fill="none" xmlns="http://www.w3.org/2000/svg">
<path d="M29.9727 -342.589H14.9434L14.9434 -316.705H6.46191L6.46191 -380.689H27.6436C34.8506 -380.689 40.3877 -379.049 44.2549 -375.768C48.1514 -372.486 50.0996 -367.711 50.0996 -361.441C50.0996 -357.457 49.0156 -353.985 46.8477 -351.026C44.709 -348.067 41.7207 -345.855 37.8828 -344.391L52.9121 -317.232V-316.705H43.8594L29.9727 -342.589ZM14.9434 -349.488H27.9072C32.0967 -349.488 35.4219 -350.572 37.8828 -352.74C40.373 -354.908 41.6182 -357.809 41.6182 -361.441C41.6182 -365.396 40.4316 -368.429 38.0586 -370.538C35.7148 -372.647 32.3164 -373.717 27.8633 -373.746H14.9434L14.9434 -349.488ZM98.1318 -346.28H70.4023V-323.604H102.614V-316.705H61.9648L61.9648 -380.689H102.175V-373.746H70.4023V-353.18H98.1318V-346.28ZM148.449 -333.404H121.643L115.622 -316.705H106.921L131.354 -380.689H138.737L163.215 -316.705H154.558L148.449 -333.404ZM124.191 -340.348H145.944L135.046 -370.274L124.191 -340.348ZM218.366 -337.008C217.575 -330.24 215.07 -325.011 210.852 -321.319C206.662 -317.657 201.081 -315.826 194.108 -315.826C186.55 -315.826 180.485 -318.536 175.915 -323.956C171.374 -329.376 169.104 -336.627 169.104 -345.709V-351.861C169.104 -357.809 170.158 -363.038 172.268 -367.55C174.406 -372.061 177.424 -375.518 181.32 -377.921C185.217 -380.352 189.729 -381.568 194.855 -381.568C201.652 -381.568 207.102 -379.664 211.203 -375.855C215.305 -372.076 217.692 -366.832 218.366 -360.123H209.885C209.152 -365.221 207.556 -368.912 205.095 -371.197C202.663 -373.482 199.25 -374.625 194.855 -374.625C189.465 -374.625 185.231 -372.633 182.155 -368.648C179.108 -364.664 177.585 -358.995 177.585 -351.642V-345.445C177.585 -338.502 179.035 -332.979 181.936 -328.878C184.836 -324.776 188.894 -322.726 194.108 -322.726C198.796 -322.726 202.385 -323.78 204.875 -325.89C207.395 -328.028 209.064 -331.734 209.885 -337.008H218.366ZM272.814 -373.746H252.248V-316.705H243.854V-373.746H223.332V-380.689H272.814V-373.746ZM29.9727 392.411H14.9434L14.9434 418.295H6.46191L6.46191 354.311H27.6436C34.8506 354.311 40.3877 355.951 44.2549 359.232C48.1514 362.514 50.0996 367.289 50.0996 373.559C50.0996 377.543 49.0156 381.015 46.8477 383.974C44.709 386.933 41.7207 389.145 37.8828 390.609L52.9121 417.768V418.295H43.8594L29.9727 392.411ZM14.9434 385.512H27.9072C32.0967 385.512 35.4219 384.428 37.8828 382.26C40.373 380.092 41.6182 377.191 41.6182 373.559C41.6182 369.604 40.4316 366.571 38.0586 364.462C35.7148 362.353 32.3164 361.283 27.8633 361.254H14.9434L14.9434 385.512ZM98.1318 388.72H70.4023V411.396H102.614V418.295H61.9648V354.311H102.175V361.254H70.4023V381.82H98.1318V388.72ZM148.449 401.596H121.643L115.622 418.295H106.921L131.354 354.311H138.737L163.215 418.295H154.558L148.449 401.596ZM124.191 394.652H145.944L135.046 364.726L124.191 394.652ZM218.366 397.992C217.575 404.76 215.07 409.989 210.852 413.681C206.662 417.343 201.081 419.174 194.108 419.174C186.55 419.174 180.485 416.464 175.915 411.044C171.374 405.624 169.104 398.373 169.104 389.291V383.139C169.104 377.191 170.158 371.962 172.268 367.45C174.406 362.939 177.424 359.482 181.32 357.079C185.217 354.648 189.729 353.432 194.855 353.432C201.652 353.432 207.102 355.336 211.203 359.145C215.305 362.924 217.692 368.168 218.366 374.877H209.885C209.152 369.779 207.556 366.088 205.095 363.803C202.663 361.518 199.25 360.375 194.855 360.375C189.465 360.375 185.231 362.367 182.155 366.352C179.108 370.336 177.585 376.005 177.585 383.358V389.555C177.585 396.498 179.035 402.021 181.936 406.122C184.836 410.224 188.894 412.274 194.108 412.274C198.796 412.274 202.385 411.22 204.875 409.11C207.395 406.972 209.064 403.266 209.885 397.992H218.366ZM272.814 361.254H252.248L252.248 418.295H243.854L243.854 361.254H223.332V354.311H272.814V361.254ZM410.012 917.411H394.982V943.295H386.501V879.311H407.683C414.89 879.311 420.427 880.951 424.294 884.232C428.19 887.514 430.139 892.289 430.139 898.559C430.139 902.543 429.055 906.015 426.887 908.974C424.748 911.933 421.76 914.145 417.922 915.609L432.951 942.768V943.295H423.898L410.012 917.411ZM394.982 910.512H407.946C412.136 910.512 415.461 909.428 417.922 907.26C420.412 905.092 421.657 902.191 421.657 898.559C421.657 894.604 420.471 891.571 418.098 889.462C415.754 887.353 412.355 886.283 407.902 886.254H394.982V910.512ZM478.171 913.72H450.441V936.396H482.653V943.295H442.004V879.311H482.214V886.254H450.441V906.82H478.171V913.72ZM528.488 926.596H501.682L495.661 943.295H486.96L511.394 879.311H518.776L543.254 943.295H534.597L528.488 926.596ZM504.23 919.652H525.983L515.085 889.726L504.23 919.652ZM598.405 922.992C597.614 929.76 595.109 934.989 590.891 938.681C586.701 942.343 581.12 944.174 574.147 944.174C566.589 944.174 560.524 941.464 555.954 936.044C551.413 930.624 549.143 923.373 549.143 914.291V908.139C549.143 902.191 550.197 896.962 552.307 892.45C554.445 887.939 557.463 884.482 561.359 882.079C565.256 879.648 569.768 878.432 574.895 878.432C581.691 878.432 587.141 880.336 591.242 884.145C595.344 887.924 597.731 893.168 598.405 899.877H589.924C589.191 894.779 587.595 891.088 585.134 888.803C582.702 886.518 579.289 885.375 574.895 885.375C569.504 885.375 565.271 887.367 562.194 891.352C559.147 895.336 557.624 901.005 557.624 908.358V914.555C557.624 921.498 559.074 927.021 561.975 931.122C564.875 935.224 568.933 937.274 574.147 937.274C578.835 937.274 582.424 936.22 584.914 934.11C587.434 931.972 589.104 928.266 589.924 922.992H598.405Z" fill="#61DBFB"/>
<path d="M318.474 -346.28H290.744V-323.604H322.956V-316.705H282.307V-380.689H322.517V-373.746H290.744V-353.18H318.474V-346.28ZM352.312 -345.226C345.075 -347.306 339.802 -349.854 336.491 -352.872C333.21 -355.919 331.569 -359.669 331.569 -364.122C331.569 -369.161 333.576 -373.321 337.59 -376.602C341.633 -379.913 346.877 -381.568 353.322 -381.568C357.717 -381.568 361.628 -380.719 365.056 -379.019C368.513 -377.32 371.179 -374.977 373.054 -371.988C374.958 -369 375.91 -365.733 375.91 -362.188H367.429C367.429 -366.056 366.198 -369.088 363.737 -371.285C361.276 -373.512 357.805 -374.625 353.322 -374.625C349.162 -374.625 345.91 -373.702 343.566 -371.856C341.252 -370.04 340.095 -367.506 340.095 -364.254C340.095 -361.646 341.193 -359.435 343.391 -357.618C345.617 -355.831 349.382 -354.19 354.685 -352.696C360.017 -351.202 364.177 -349.547 367.165 -347.73C370.183 -345.943 372.409 -343.849 373.845 -341.446C375.31 -339.044 376.042 -336.217 376.042 -332.965C376.042 -327.779 374.021 -323.619 369.978 -320.484C365.935 -317.379 360.529 -315.826 353.762 -315.826C349.367 -315.826 345.266 -316.661 341.457 -318.331C337.648 -320.03 334.704 -322.345 332.624 -325.274C330.573 -328.204 329.548 -331.529 329.548 -335.25H338.029C338.029 -331.383 339.45 -328.321 342.292 -326.065C345.163 -323.839 348.986 -322.726 353.762 -322.726C358.215 -322.726 361.628 -323.634 364.001 -325.45C366.374 -327.267 367.561 -329.742 367.561 -332.877C367.561 -336.012 366.462 -338.429 364.265 -340.128C362.067 -341.856 358.083 -343.556 352.312 -345.226ZM416.691 -380.733V-373.834H415.197C408.869 -373.717 403.83 -371.842 400.08 -368.209C396.33 -364.576 394.162 -359.464 393.576 -352.872C396.945 -356.739 401.545 -358.673 407.375 -358.673C412.941 -358.673 417.38 -356.71 420.69 -352.784C424.03 -348.858 425.7 -343.79 425.7 -337.579C425.7 -330.987 423.898 -325.714 420.295 -321.759C416.721 -317.804 411.916 -315.826 405.881 -315.826C399.758 -315.826 394.792 -318.17 390.983 -322.857C387.175 -327.574 385.271 -333.639 385.271 -341.051V-344.171C385.271 -355.948 387.775 -364.942 392.785 -371.153C397.824 -377.393 405.31 -380.587 415.241 -380.733H416.691ZM406.013 -351.905C403.229 -351.905 400.666 -351.07 398.322 -349.4C395.979 -347.73 394.353 -345.636 393.444 -343.116V-340.128C393.444 -334.854 394.631 -330.606 397.004 -327.384C399.377 -324.161 402.336 -322.55 405.881 -322.55C409.543 -322.55 412.414 -323.897 414.494 -326.593C416.604 -329.288 417.658 -332.818 417.658 -337.184C417.658 -341.578 416.589 -345.123 414.45 -347.818C412.341 -350.543 409.528 -351.905 406.013 -351.905ZM53.7471 -220.099C51.5791 -216.993 48.5469 -214.664 44.6504 -213.111C40.7832 -211.588 36.2715 -210.826 31.1152 -210.826C25.9004 -210.826 21.2715 -212.042 17.2285 -214.474C13.1855 -216.935 10.0508 -220.421 7.82422 -224.933C5.62695 -229.444 4.49902 -234.674 4.44043 -240.621V-246.202C4.44043 -255.841 6.68164 -263.311 11.1641 -268.614C15.6758 -273.917 22.0039 -276.568 30.1484 -276.568C36.8281 -276.568 42.2041 -274.854 46.2764 -271.427C50.3486 -268.028 52.8389 -263.194 53.7471 -256.925H45.3096C43.7275 -265.392 38.6885 -269.625 30.1924 -269.625C24.5381 -269.625 20.2461 -267.633 17.3164 -263.648C14.416 -259.693 12.9512 -253.951 12.9219 -246.422V-241.192C12.9219 -234.015 14.5625 -228.302 17.8437 -224.054C21.125 -219.835 25.5635 -217.726 31.1592 -217.726C34.3232 -217.726 37.0918 -218.077 39.4648 -218.78C41.8379 -219.483 43.8008 -220.67 45.3535 -222.34V-236.71H30.5439L30.5439 -243.565H53.7471V-220.099ZM112.897 -275.689L112.897 -232.184C112.868 -226.148 110.964 -221.212 107.185 -217.374C103.435 -213.536 98.3369 -211.383 91.8916 -210.914L89.6504 -210.826C82.6484 -210.826 77.0674 -212.716 72.9072 -216.495C68.7471 -220.274 66.6377 -225.475 66.5791 -232.096L66.5791 -275.689H74.9287L74.9287 -232.359C74.9287 -227.73 76.2031 -224.127 78.752 -221.549C81.3008 -219 84.9336 -217.726 89.6504 -217.726C94.4258 -217.726 98.0732 -219 100.593 -221.549C103.142 -224.098 104.416 -227.686 104.416 -232.315L104.416 -275.689H112.897ZM134.694 -218.604H165.017V-211.705H126.213L126.213 -275.689H134.694V-218.604ZM183.078 -236.754V-211.705H174.641V-275.689H198.239C205.241 -275.689 210.72 -273.902 214.675 -270.328C218.659 -266.754 220.651 -262.022 220.651 -256.134C220.651 -249.923 218.703 -245.133 214.807 -241.764C210.939 -238.424 205.388 -236.754 198.151 -236.754H183.078ZM183.078 -243.653H198.239C202.751 -243.653 206.208 -244.708 208.61 -246.817C211.013 -248.956 212.214 -252.032 212.214 -256.046C212.214 -259.854 211.013 -262.901 208.61 -265.186C206.208 -267.472 202.912 -268.658 198.723 -268.746H183.078V-243.653ZM278.659 -220.099C276.491 -216.993 273.459 -214.664 269.562 -213.111C265.695 -211.588 261.184 -210.826 256.027 -210.826C250.812 -210.826 246.184 -212.042 242.141 -214.474C238.098 -216.935 234.963 -220.421 232.736 -224.933C230.539 -229.444 229.411 -234.674 229.353 -240.621V-246.202C229.353 -255.841 231.594 -263.311 236.076 -268.614C240.588 -273.917 246.916 -276.568 255.061 -276.568C261.74 -276.568 267.116 -274.854 271.188 -271.427C275.261 -268.028 277.751 -263.194 278.659 -256.925H270.222C268.64 -265.392 263.601 -269.625 255.104 -269.625C249.45 -269.625 245.158 -267.633 242.229 -263.648C239.328 -259.693 237.863 -253.951 237.834 -246.422V-241.192C237.834 -234.015 239.475 -228.302 242.756 -224.054C246.037 -219.835 250.476 -217.726 256.071 -217.726C259.235 -217.726 262.004 -218.077 264.377 -218.78C266.75 -219.483 268.713 -220.67 270.266 -222.34V-236.71H255.456V-243.565H278.659V-220.099ZM301.818 -211.705H293.381V-275.689H301.818V-211.705ZM360.178 -268.746H339.611V-211.705H331.218V-268.746H310.695V-275.689H360.178V-268.746ZM418.845 -211.705H410.363L378.151 -261.012V-211.705H369.67V-275.689H378.151L410.451 -226.163V-275.689H418.845V-211.705ZM483.049 -241.632C483.049 -235.362 481.994 -229.884 479.885 -225.196C477.775 -220.538 474.787 -216.978 470.92 -214.518C467.053 -212.057 462.541 -210.826 457.385 -210.826C452.346 -210.826 447.878 -212.057 443.981 -214.518C440.085 -217.008 437.053 -220.538 434.885 -225.108C432.746 -229.708 431.647 -235.025 431.589 -241.06V-245.675C431.589 -251.827 432.658 -257.262 434.797 -261.978C436.936 -266.695 439.953 -270.299 443.85 -272.789C447.775 -275.309 452.258 -276.568 457.297 -276.568C462.424 -276.568 466.936 -275.323 470.832 -272.833C474.758 -270.372 477.775 -266.783 479.885 -262.066C481.994 -257.379 483.049 -251.915 483.049 -245.675V-241.632ZM474.655 -245.763C474.655 -253.351 473.132 -259.166 470.085 -263.209C467.038 -267.281 462.775 -269.317 457.297 -269.317C451.965 -269.317 447.761 -267.281 444.685 -263.209C441.638 -259.166 440.07 -253.541 439.982 -246.334V-241.632C439.982 -234.278 441.521 -228.492 444.597 -224.273C447.702 -220.084 451.965 -217.989 457.385 -217.989C462.834 -217.989 467.053 -219.967 470.041 -223.922C473.029 -227.906 474.567 -233.604 474.655 -241.017V-245.763ZM495.705 -211.705V-275.689H513.767C519.333 -275.689 524.255 -274.459 528.532 -271.998C532.81 -269.537 536.105 -266.036 538.42 -261.495C540.764 -256.954 541.95 -251.739 541.979 -245.851V-241.764C541.979 -235.728 540.808 -230.44 538.464 -225.899C536.149 -221.358 532.824 -217.872 528.488 -215.44C524.182 -213.009 519.157 -211.764 513.415 -211.705H495.705ZM504.143 -268.746V-218.604H513.02C519.523 -218.604 524.577 -220.626 528.181 -224.669C531.813 -228.712 533.63 -234.469 533.63 -241.939V-245.675C533.63 -252.94 531.916 -258.58 528.488 -262.594C525.09 -266.637 520.256 -268.687 513.986 -268.746H504.143ZM590.935 -241.28H563.205V-218.604H595.417V-211.705H554.768V-275.689H594.978V-268.746H563.205V-248.18H590.935V-241.28ZM25.3584 -135.226C18.1221 -137.306 12.8486 -139.854 9.53809 -142.872C6.25684 -145.919 4.61621 -149.669 4.61621 -154.122C4.61621 -159.161 6.62305 -163.321 10.6367 -166.602C14.6797 -169.913 19.9238 -171.568 26.3691 -171.568C30.7637 -171.568 34.6748 -170.719 38.1025 -169.019C41.5596 -167.32 44.2256 -164.977 46.1006 -161.988C48.0049 -159 48.957 -155.733 48.957 -152.188H40.4756C40.4756 -156.056 39.2451 -159.088 36.7842 -161.285C34.3232 -163.512 30.8516 -164.625 26.3691 -164.625C22.209 -164.625 18.957 -163.702 16.6133 -161.856C14.2988 -160.04 13.1416 -157.506 13.1416 -154.254C13.1416 -151.646 14.2402 -149.435 16.4375 -147.618C18.6641 -145.831 22.4287 -144.19 27.7314 -142.696C33.0635 -141.202 37.2236 -139.547 40.2119 -137.73C43.2295 -135.943 45.4561 -133.849 46.8916 -131.446C48.3564 -129.044 49.0889 -126.217 49.0889 -122.965C49.0889 -117.779 47.0674 -113.619 43.0244 -110.484C38.9814 -107.379 33.5762 -105.826 26.8086 -105.826C22.4141 -105.826 18.3125 -106.661 14.5039 -108.331C10.6953 -110.03 7.75098 -112.345 5.6709 -115.274C3.62012 -118.204 2.59473 -121.529 2.59473 -125.25H11.0762C11.0762 -121.383 12.4971 -118.321 15.3389 -116.065C18.21 -113.839 22.0332 -112.726 26.8086 -112.726C31.2617 -112.726 34.6748 -113.634 37.0479 -115.45C39.4209 -117.267 40.6074 -119.742 40.6074 -122.877C40.6074 -126.012 39.5088 -128.429 37.3115 -130.128C35.1143 -131.856 31.1299 -133.556 25.3584 -135.226ZM95.2754 -123.404H68.4687L62.4482 -106.705H53.7471L78.1807 -170.689H85.5635L110.041 -106.705H101.384L95.2754 -123.404ZM71.0176 -130.348H92.7705L81.8721 -160.274L71.0176 -130.348ZM137.507 -135.226C130.271 -137.306 124.997 -139.854 121.687 -142.872C118.405 -145.919 116.765 -149.669 116.765 -154.122C116.765 -159.161 118.771 -163.321 122.785 -166.602C126.828 -169.913 132.072 -171.568 138.518 -171.568C142.912 -171.568 146.823 -170.719 150.251 -169.019C153.708 -167.32 156.374 -164.977 158.249 -161.988C160.153 -159 161.105 -155.733 161.105 -152.188H152.624C152.624 -156.056 151.394 -159.088 148.933 -161.285C146.472 -163.512 143 -164.625 138.518 -164.625C134.357 -164.625 131.105 -163.702 128.762 -161.856C126.447 -160.04 125.29 -157.506 125.29 -154.254C125.29 -151.646 126.389 -149.435 128.586 -147.618C130.812 -145.831 134.577 -144.19 139.88 -142.696C145.212 -141.202 149.372 -139.547 152.36 -137.73C155.378 -135.943 157.604 -133.849 159.04 -131.446C160.505 -129.044 161.237 -126.217 161.237 -122.965C161.237 -117.779 159.216 -113.619 155.173 -110.484C151.13 -107.379 145.725 -105.826 138.957 -105.826C134.562 -105.826 130.461 -106.661 126.652 -108.331C122.844 -110.03 119.899 -112.345 117.819 -115.274C115.769 -118.204 114.743 -121.529 114.743 -125.25H123.225C123.225 -121.383 124.646 -118.321 127.487 -116.065C130.358 -113.839 134.182 -112.726 138.957 -112.726C143.41 -112.726 146.823 -113.634 149.196 -115.45C151.569 -117.267 152.756 -119.742 152.756 -122.877C152.756 -126.012 151.657 -128.429 149.46 -130.128C147.263 -131.856 143.278 -133.556 137.507 -135.226ZM190.944 -135.226C183.708 -137.306 178.435 -139.854 175.124 -142.872C171.843 -145.919 170.202 -149.669 170.202 -154.122C170.202 -159.161 172.209 -163.321 176.223 -166.602C180.266 -169.913 185.51 -171.568 191.955 -171.568C196.35 -171.568 200.261 -170.719 203.688 -169.019C207.146 -167.32 209.812 -164.977 211.687 -161.988C213.591 -159 214.543 -155.733 214.543 -152.188H206.062C206.062 -156.056 204.831 -159.088 202.37 -161.285C199.909 -163.512 196.438 -164.625 191.955 -164.625C187.795 -164.625 184.543 -163.702 182.199 -161.856C179.885 -160.04 178.728 -157.506 178.728 -154.254C178.728 -151.646 179.826 -149.435 182.023 -147.618C184.25 -145.831 188.015 -144.19 193.317 -142.696C198.649 -141.202 202.81 -139.547 205.798 -137.73C208.815 -135.943 211.042 -133.849 212.478 -131.446C213.942 -129.044 214.675 -126.217 214.675 -122.965C214.675 -117.779 212.653 -113.619 208.61 -110.484C204.567 -107.379 199.162 -105.826 192.395 -105.826C188 -105.826 183.898 -106.661 180.09 -108.331C176.281 -110.03 173.337 -112.345 171.257 -115.274C169.206 -118.204 168.181 -121.529 168.181 -125.25H176.662C176.662 -121.383 178.083 -118.321 180.925 -116.065C183.796 -113.839 187.619 -112.726 192.395 -112.726C196.848 -112.726 200.261 -113.634 202.634 -115.45C205.007 -117.267 206.193 -119.742 206.193 -122.877C206.193 -126.012 205.095 -128.429 202.897 -130.128C200.7 -131.856 196.716 -133.556 190.944 -135.226ZM42.6729 178.72H14.9434L14.9434 201.396H47.1553V208.295H6.50586L6.50586 144.311H46.7158V151.254H14.9434L14.9434 171.82H42.6729L42.6729 178.72ZM76.5107 179.774C69.2744 177.694 64.001 175.146 60.6904 172.128C57.4092 169.081 55.7686 165.331 55.7686 160.878C55.7686 155.839 57.7754 151.679 61.7891 148.398C65.832 145.087 71.0762 143.432 77.5215 143.432C81.916 143.432 85.8271 144.281 89.2549 145.981C92.7119 147.68 95.3779 150.023 97.2529 153.012C99.1572 156 100.109 159.267 100.109 162.812H91.6279C91.6279 158.944 90.3975 155.912 87.9365 153.715C85.4756 151.488 82.0039 150.375 77.5215 150.375C73.3613 150.375 70.1094 151.298 67.7656 153.144C65.4512 154.96 64.2939 157.494 64.2939 160.746C64.2939 163.354 65.3926 165.565 67.5898 167.382C69.8164 169.169 73.5811 170.81 78.8838 172.304C84.2158 173.798 88.376 175.453 91.3643 177.27C94.3818 179.057 96.6084 181.151 98.0439 183.554C99.5088 185.956 100.241 188.783 100.241 192.035C100.241 197.221 98.2197 201.381 94.1768 204.516C90.1338 207.621 84.7285 209.174 77.9609 209.174C73.5664 209.174 69.4648 208.339 65.6562 206.669C61.8477 204.97 58.9033 202.655 56.8232 199.726C54.7725 196.796 53.7471 193.471 53.7471 189.75H62.2285C62.2285 193.617 63.6494 196.679 66.4912 198.935C69.3623 201.161 73.1855 202.274 77.9609 202.274C82.4141 202.274 85.8271 201.366 88.2002 199.55C90.5732 197.733 91.7598 195.258 91.7598 192.123C91.7598 188.988 90.6611 186.571 88.4639 184.872C86.2666 183.144 82.2822 181.444 76.5107 179.774ZM140.891 144.267V151.166H139.396C133.068 151.283 128.029 153.158 124.279 156.791C120.529 160.424 118.361 165.536 117.775 172.128C121.145 168.261 125.744 166.327 131.574 166.327C137.141 166.327 141.579 168.29 144.89 172.216C148.229 176.142 149.899 181.21 149.899 187.421C149.899 194.013 148.098 199.286 144.494 203.241C140.92 207.196 136.115 209.174 130.08 209.174C123.957 209.174 118.991 206.83 115.183 202.143C111.374 197.426 109.47 191.361 109.47 183.949V180.829C109.47 169.052 111.975 160.058 116.984 153.847C122.023 147.607 129.509 144.413 139.44 144.267H140.891ZM130.212 173.095C127.429 173.095 124.865 173.93 122.521 175.6C120.178 177.27 118.552 179.364 117.644 181.884V184.872C117.644 190.146 118.83 194.394 121.203 197.616C123.576 200.839 126.535 202.45 130.08 202.45C133.742 202.45 136.613 201.103 138.693 198.407C140.803 195.712 141.857 192.182 141.857 187.816C141.857 183.422 140.788 179.877 138.649 177.182C136.54 174.457 133.728 173.095 130.212 173.095ZM53.7471 304.901C51.5791 308.007 48.5469 310.336 44.6504 311.889C40.7832 313.412 36.2715 314.174 31.1152 314.174C25.9004 314.174 21.2715 312.958 17.2285 310.526C13.1855 308.065 10.0508 304.579 7.82422 300.067C5.62695 295.556 4.49902 290.326 4.44043 284.379L4.44043 278.798C4.44043 269.159 6.68164 261.689 11.1641 256.386C15.6758 251.083 22.0039 248.432 30.1484 248.432C36.8281 248.432 42.2041 250.146 46.2764 253.573C50.3486 256.972 52.8389 261.806 53.7471 268.075H45.3096C43.7275 259.608 38.6885 255.375 30.1924 255.375C24.5381 255.375 20.2461 257.367 17.3164 261.352C14.416 265.307 12.9512 271.049 12.9219 278.578V283.808C12.9219 290.985 14.5625 296.698 17.8437 300.946C21.125 305.165 25.5635 307.274 31.1592 307.274C34.3232 307.274 37.0918 306.923 39.4648 306.22C41.8379 305.517 43.8008 304.33 45.3535 302.66V288.29H30.5439V281.435H53.7471L53.7471 304.901ZM112.897 249.311V292.816C112.868 298.852 110.964 303.788 107.185 307.626C103.435 311.464 98.3369 313.617 91.8916 314.086L89.6504 314.174C82.6484 314.174 77.0674 312.284 72.9072 308.505C68.7471 304.726 66.6377 299.525 66.5791 292.904V249.311H74.9287V292.641C74.9287 297.27 76.2031 300.873 78.752 303.451C81.3008 306 84.9336 307.274 89.6504 307.274C94.4258 307.274 98.0732 306 100.593 303.451C103.142 300.902 104.416 297.314 104.416 292.685V249.311H112.897ZM134.694 306.396H165.017V313.295H126.213V249.311H134.694V306.396ZM183.078 288.246V313.295H174.641V249.311H198.239C205.241 249.311 210.72 251.098 214.675 254.672C218.659 258.246 220.651 262.978 220.651 268.866C220.651 275.077 218.703 279.867 214.807 283.236C210.939 286.576 205.388 288.246 198.151 288.246H183.078ZM183.078 281.347H198.239C202.751 281.347 206.208 280.292 208.61 278.183C211.013 276.044 212.214 272.968 212.214 268.954C212.214 265.146 211.013 262.099 208.61 259.814C206.208 257.528 202.912 256.342 198.723 256.254H183.078V281.347ZM278.659 304.901C276.491 308.007 273.459 310.336 269.562 311.889C265.695 313.412 261.184 314.174 256.027 314.174C250.812 314.174 246.184 312.958 242.141 310.526C238.098 308.065 234.963 304.579 232.736 300.067C230.539 295.556 229.411 290.326 229.353 284.379V278.798C229.353 269.159 231.594 261.689 236.076 256.386C240.588 251.083 246.916 248.432 255.061 248.432C261.74 248.432 267.116 250.146 271.188 253.573C275.261 256.972 277.751 261.806 278.659 268.075H270.222C268.64 259.608 263.601 255.375 255.104 255.375C249.45 255.375 245.158 257.367 242.229 261.352C239.328 265.307 237.863 271.049 237.834 278.578V283.808C237.834 290.985 239.475 296.698 242.756 300.946C246.037 305.165 250.476 307.274 256.071 307.274C259.235 307.274 262.004 306.923 264.377 306.22C266.75 305.517 268.713 304.33 270.266 302.66V288.29H255.456V281.435H278.659V304.901ZM301.818 313.295H293.381V249.311H301.818V313.295ZM360.178 256.254H339.611V313.295H331.218V256.254H310.695V249.311H360.178V256.254ZM418.845 313.295H410.363L378.151 263.988V313.295H369.67V249.311H378.151L410.451 298.837V249.311H418.845V313.295ZM483.049 283.368C483.049 289.638 481.994 295.116 479.885 299.804C477.775 304.462 474.787 308.022 470.92 310.482C467.053 312.943 462.541 314.174 457.385 314.174C452.346 314.174 447.878 312.943 443.981 310.482C440.085 307.992 437.053 304.462 434.885 299.892C432.746 295.292 431.647 289.975 431.589 283.94V279.325C431.589 273.173 432.658 267.738 434.797 263.022C436.936 258.305 439.953 254.701 443.85 252.211C447.775 249.691 452.258 248.432 457.297 248.432C462.424 248.432 466.936 249.677 470.832 252.167C474.758 254.628 477.775 258.217 479.885 262.934C481.994 267.621 483.049 273.085 483.049 279.325V283.368ZM474.655 279.237C474.655 271.649 473.132 265.834 470.085 261.791C467.038 257.719 462.775 255.683 457.297 255.683C451.965 255.683 447.761 257.719 444.685 261.791C441.638 265.834 440.07 271.459 439.982 278.666V283.368C439.982 290.722 441.521 296.508 444.597 300.727C447.702 304.916 451.965 307.011 457.385 307.011C462.834 307.011 467.053 305.033 470.041 301.078C473.029 297.094 474.567 291.396 474.655 283.983V279.237ZM495.705 313.295V249.311H513.767C519.333 249.311 524.255 250.541 528.532 253.002C532.81 255.463 536.105 258.964 538.42 263.505C540.764 268.046 541.95 273.261 541.979 279.149V283.236C541.979 289.272 540.808 294.56 538.464 299.101C536.149 303.642 532.824 307.128 528.488 309.56C524.182 311.991 519.157 313.236 513.415 313.295H495.705ZM504.143 256.254V306.396H513.02C519.523 306.396 524.577 304.374 528.181 300.331C531.813 296.288 533.63 290.531 533.63 283.061V279.325C533.63 272.06 531.916 266.42 528.488 262.406C525.09 258.363 520.256 256.313 513.986 256.254H504.143ZM590.935 283.72H563.205V306.396H595.417V313.295H554.768V249.311H594.978V256.254H563.205V276.82H590.935V283.72ZM318.474 388.72H290.744V411.396H322.956V418.295H282.307V354.311H322.517V361.254H290.744V381.82H318.474V388.72ZM352.312 389.774C345.075 387.694 339.802 385.146 336.491 382.128C333.21 379.081 331.569 375.331 331.569 370.878C331.569 365.839 333.576 361.679 337.59 358.398C341.633 355.087 346.877 353.432 353.322 353.432C357.717 353.432 361.628 354.281 365.056 355.981C368.513 357.68 371.179 360.023 373.054 363.012C374.958 366 375.91 369.267 375.91 372.812H367.429C367.429 368.944 366.198 365.912 363.737 363.715C361.276 361.488 357.805 360.375 353.322 360.375C349.162 360.375 345.91 361.298 343.566 363.144C341.252 364.96 340.095 367.494 340.095 370.746C340.095 373.354 341.193 375.565 343.391 377.382C345.617 379.169 349.382 380.81 354.685 382.304C360.017 383.798 364.177 385.453 367.165 387.27C370.183 389.057 372.409 391.151 373.845 393.554C375.31 395.956 376.042 398.783 376.042 402.035C376.042 407.221 374.021 411.381 369.978 414.516C365.935 417.621 360.529 419.174 353.762 419.174C349.367 419.174 345.266 418.339 341.457 416.669C337.648 414.97 334.704 412.655 332.624 409.726C330.573 406.796 329.548 403.471 329.548 399.75H338.029C338.029 403.617 339.45 406.679 342.292 408.935C345.163 411.161 348.986 412.274 353.762 412.274C358.215 412.274 361.628 411.366 364.001 409.55C366.374 407.733 367.561 405.258 367.561 402.123C367.561 398.988 366.462 396.571 364.265 394.872C362.067 393.144 358.083 391.444 352.312 389.774ZM416.691 354.267V361.166H415.197C408.869 361.283 403.83 363.158 400.08 366.791C396.33 370.424 394.162 375.536 393.576 382.128C396.945 378.261 401.545 376.327 407.375 376.327C412.941 376.327 417.38 378.29 420.69 382.216C424.03 386.142 425.7 391.21 425.7 397.421C425.7 404.013 423.898 409.286 420.295 413.241C416.721 417.196 411.916 419.174 405.881 419.174C399.758 419.174 394.792 416.83 390.983 412.143C387.175 407.426 385.271 401.361 385.271 393.949V390.829C385.271 379.052 387.775 370.058 392.785 363.847C397.824 357.607 405.31 354.413 415.241 354.267H416.691ZM406.013 383.095C403.229 383.095 400.666 383.93 398.322 385.6C395.979 387.27 394.353 389.364 393.444 391.884V394.872C393.444 400.146 394.631 404.394 397.004 407.616C399.377 410.839 402.336 412.45 405.881 412.45C409.543 412.45 412.414 411.103 414.494 408.407C416.604 405.712 417.658 402.182 417.658 397.816C417.658 393.422 416.589 389.877 414.45 387.182C412.341 384.457 409.528 383.095 406.013 383.095ZM53.7471 514.901C51.5791 518.007 48.5469 520.336 44.6504 521.889C40.7832 523.412 36.2715 524.174 31.1152 524.174C25.9004 524.174 21.2715 522.958 17.2285 520.526C13.1855 518.065 10.0508 514.579 7.82422 510.067C5.62695 505.556 4.49902 500.326 4.44043 494.379V488.798C4.44043 479.159 6.68164 471.689 11.1641 466.386C15.6758 461.083 22.0039 458.432 30.1484 458.432C36.8281 458.432 42.2041 460.146 46.2764 463.573C50.3486 466.972 52.8389 471.806 53.7471 478.075H45.3096C43.7275 469.608 38.6885 465.375 30.1924 465.375C24.5381 465.375 20.2461 467.367 17.3164 471.352C14.416 475.307 12.9512 481.049 12.9219 488.578V493.808C12.9219 500.985 14.5625 506.698 17.8437 510.946C21.125 515.165 25.5635 517.274 31.1592 517.274C34.3232 517.274 37.0918 516.923 39.4648 516.22C41.8379 515.517 43.8008 514.33 45.3535 512.66V498.29H30.5439V491.435H53.7471V514.901ZM112.897 459.311L112.897 502.816C112.868 508.852 110.964 513.788 107.185 517.626C103.435 521.464 98.3369 523.617 91.8916 524.086L89.6504 524.174C82.6484 524.174 77.0674 522.284 72.9072 518.505C68.7471 514.726 66.6377 509.525 66.5791 502.904L66.5791 459.311H74.9287L74.9287 502.641C74.9287 507.27 76.2031 510.873 78.752 513.451C81.3008 516 84.9336 517.274 89.6504 517.274C94.4258 517.274 98.0732 516 100.593 513.451C103.142 510.902 104.416 507.314 104.416 502.685L104.416 459.311H112.897ZM134.694 516.396H165.017V523.295H126.213L126.213 459.311H134.694V516.396ZM183.078 498.246V523.295H174.641V459.311H198.239C205.241 459.311 210.72 461.098 214.675 464.672C218.659 468.246 220.651 472.978 220.651 478.866C220.651 485.077 218.703 489.867 214.807 493.236C210.939 496.576 205.388 498.246 198.151 498.246H183.078ZM183.078 491.347H198.239C202.751 491.347 206.208 490.292 208.61 488.183C211.013 486.044 212.214 482.968 212.214 478.954C212.214 475.146 211.013 472.099 208.61 469.814C206.208 467.528 202.912 466.342 198.723 466.254H183.078V491.347ZM278.659 514.901C276.491 518.007 273.459 520.336 269.562 521.889C265.695 523.412 261.184 524.174 256.027 524.174C250.812 524.174 246.184 522.958 242.141 520.526C238.098 518.065 234.963 514.579 232.736 510.067C230.539 505.556 229.411 500.326 229.353 494.379V488.798C229.353 479.159 231.594 471.689 236.076 466.386C240.588 461.083 246.916 458.432 255.061 458.432C261.74 458.432 267.116 460.146 271.188 463.573C275.261 466.972 277.751 471.806 278.659 478.075H270.222C268.64 469.608 263.601 465.375 255.104 465.375C249.45 465.375 245.158 467.367 242.229 471.352C239.328 475.307 237.863 481.049 237.834 488.578V493.808C237.834 500.985 239.475 506.698 242.756 510.946C246.037 515.165 250.476 517.274 256.071 517.274C259.235 517.274 262.004 516.923 264.377 516.22C266.75 515.517 268.713 514.33 270.266 512.66V498.29H255.456V491.435H278.659V514.901ZM301.818 523.295H293.381V459.311H301.818V523.295ZM360.178 466.254H339.611V523.295H331.218V466.254H310.695V459.311H360.178V466.254ZM418.845 523.295H410.363L378.151 473.988V523.295H369.67V459.311H378.151L410.451 508.837V459.311H418.845V523.295ZM483.049 493.368C483.049 499.638 481.994 505.116 479.885 509.804C477.775 514.462 474.787 518.022 470.92 520.482C467.053 522.943 462.541 524.174 457.385 524.174C452.346 524.174 447.878 522.943 443.981 520.482C440.085 517.992 437.053 514.462 434.885 509.892C432.746 505.292 431.647 499.975 431.589 493.94V489.325C431.589 483.173 432.658 477.738 434.797 473.022C436.936 468.305 439.953 464.701 443.85 462.211C447.775 459.691 452.258 458.432 457.297 458.432C462.424 458.432 466.936 459.677 470.832 462.167C474.758 464.628 477.775 468.217 479.885 472.934C481.994 477.621 483.049 483.085 483.049 489.325V493.368ZM474.655 489.237C474.655 481.649 473.132 475.834 470.085 471.791C467.038 467.719 462.775 465.683 457.297 465.683C451.965 465.683 447.761 467.719 444.685 471.791C441.638 475.834 440.07 481.459 439.982 488.666V493.368C439.982 500.722 441.521 506.508 444.597 510.727C447.702 514.916 451.965 517.011 457.385 517.011C462.834 517.011 467.053 515.033 470.041 511.078C473.029 507.094 474.567 501.396 474.655 493.983V489.237ZM495.705 523.295V459.311H513.767C519.333 459.311 524.255 460.541 528.532 463.002C532.81 465.463 536.105 468.964 538.42 473.505C540.764 478.046 541.95 483.261 541.979 489.149V493.236C541.979 499.272 540.808 504.56 538.464 509.101C536.149 513.642 532.824 517.128 528.488 519.56C524.182 521.991 519.157 523.236 513.415 523.295H495.705ZM504.143 466.254V516.396H513.02C519.523 516.396 524.577 514.374 528.181 510.331C531.813 506.288 533.63 500.531 533.63 493.061V489.325C533.63 482.06 531.916 476.42 528.488 472.406C525.09 468.363 520.256 466.313 513.986 466.254H504.143ZM590.935 493.72H563.205V516.396H595.417V523.295H554.768V459.311H594.978V466.254H563.205V486.82H590.935V493.72ZM25.3584 599.774C18.1221 597.694 12.8486 595.146 9.53809 592.128C6.25684 589.081 4.61621 585.331 4.61621 580.878C4.61621 575.839 6.62305 571.679 10.6367 568.398C14.6797 565.087 19.9238 563.432 26.3691 563.432C30.7637 563.432 34.6748 564.281 38.1025 565.981C41.5596 567.68 44.2256 570.023 46.1006 573.012C48.0049 576 48.957 579.267 48.957 582.812H40.4756C40.4756 578.944 39.2451 575.912 36.7842 573.715C34.3232 571.488 30.8516 570.375 26.3691 570.375C22.209 570.375 18.957 571.298 16.6133 573.144C14.2988 574.96 13.1416 577.494 13.1416 580.746C13.1416 583.354 14.2402 585.565 16.4375 587.382C18.6641 589.169 22.4287 590.81 27.7314 592.304C33.0635 593.798 37.2236 595.453 40.2119 597.27C43.2295 599.057 45.4561 601.151 46.8916 603.554C48.3564 605.956 49.0889 608.783 49.0889 612.035C49.0889 617.221 47.0674 621.381 43.0244 624.516C38.9814 627.621 33.5762 629.174 26.8086 629.174C22.4141 629.174 18.3125 628.339 14.5039 626.669C10.6953 624.97 7.75098 622.655 5.6709 619.726C3.62012 616.796 2.59473 613.471 2.59473 609.75H11.0762C11.0762 613.617 12.4971 616.679 15.3389 618.935C18.21 621.161 22.0332 622.274 26.8086 622.274C31.2617 622.274 34.6748 621.366 37.0479 619.55C39.4209 617.733 40.6074 615.258 40.6074 612.123C40.6074 608.988 39.5088 606.571 37.3115 604.872C35.1143 603.144 31.1299 601.444 25.3584 599.774ZM95.2754 611.596H68.4687L62.4482 628.295H53.7471L78.1807 564.311H85.5635L110.041 628.295H101.384L95.2754 611.596ZM71.0176 604.652H92.7705L81.8721 574.726L71.0176 604.652ZM137.507 599.774C130.271 597.694 124.997 595.146 121.687 592.128C118.405 589.081 116.765 585.331 116.765 580.878C116.765 575.839 118.771 571.679 122.785 568.398C126.828 565.087 132.072 563.432 138.518 563.432C142.912 563.432 146.823 564.281 150.251 565.981C153.708 567.68 156.374 570.023 158.249 573.012C160.153 576 161.105 579.267 161.105 582.812H152.624C152.624 578.944 151.394 575.912 148.933 573.715C146.472 571.488 143 570.375 138.518 570.375C134.357 570.375 131.105 571.298 128.762 573.144C126.447 574.96 125.29 577.494 125.29 580.746C125.29 583.354 126.389 585.565 128.586 587.382C130.812 589.169 134.577 590.81 139.88 592.304C145.212 593.798 149.372 595.453 152.36 597.27C155.378 599.057 157.604 601.151 159.04 603.554C160.505 605.956 161.237 608.783 161.237 612.035C161.237 617.221 159.216 621.381 155.173 624.516C151.13 627.621 145.725 629.174 138.957 629.174C134.562 629.174 130.461 628.339 126.652 626.669C122.844 624.97 119.899 622.655 117.819 619.726C115.769 616.796 114.743 613.471 114.743 609.75H123.225C123.225 613.617 124.646 616.679 127.487 618.935C130.358 621.161 134.182 622.274 138.957 622.274C143.41 622.274 146.823 621.366 149.196 619.55C151.569 617.733 152.756 615.258 152.756 612.123C152.756 608.988 151.657 606.571 149.46 604.872C147.263 603.144 143.278 601.444 137.507 599.774ZM190.944 599.774C183.708 597.694 178.435 595.146 175.124 592.128C171.843 589.081 170.202 585.331 170.202 580.878C170.202 575.839 172.209 571.679 176.223 568.398C180.266 565.087 185.51 563.432 191.955 563.432C196.35 563.432 200.261 564.281 203.688 565.981C207.146 567.68 209.812 570.023 211.687 573.012C213.591 576 214.543 579.267 214.543 582.812H206.062C206.062 578.944 204.831 575.912 202.37 573.715C199.909 571.488 196.437 570.375 191.955 570.375C187.795 570.375 184.543 571.298 182.199 573.144C179.885 574.96 178.728 577.494 178.728 580.746C178.728 583.354 179.826 585.565 182.023 587.382C184.25 589.169 188.015 590.81 193.317 592.304C198.649 593.798 202.81 595.453 205.798 597.27C208.815 599.057 211.042 601.151 212.478 603.554C213.942 605.956 214.675 608.783 214.675 612.035C214.675 617.221 212.653 621.381 208.61 624.516C204.567 627.621 199.162 629.174 192.395 629.174C188 629.174 183.898 628.339 180.09 626.669C176.281 624.97 173.337 622.655 171.257 619.726C169.206 616.796 168.181 613.471 168.181 609.75H176.662C176.662 613.617 178.083 616.679 180.925 618.935C183.796 621.161 187.619 622.274 192.395 622.274C196.848 622.274 200.261 621.366 202.634 619.55C205.007 617.733 206.193 615.258 206.193 612.123C206.193 608.988 205.095 606.571 202.897 604.872C200.7 603.144 196.716 601.444 190.944 599.774ZM42.6729 913.72H14.9434L14.9434 936.396H47.1553V943.295H6.50586L6.50586 879.311H46.7158V886.254H14.9434L14.9434 906.82H42.6729V913.72ZM76.5107 914.774C69.2744 912.694 64.001 910.146 60.6904 907.128C57.4092 904.081 55.7686 900.331 55.7686 895.878C55.7686 890.839 57.7754 886.679 61.7891 883.398C65.832 880.087 71.0762 878.432 77.5215 878.432C81.916 878.432 85.8271 879.281 89.2549 880.981C92.7119 882.68 95.3779 885.023 97.2529 888.012C99.1572 891 100.109 894.267 100.109 897.812H91.6279C91.6279 893.944 90.3975 890.912 87.9365 888.715C85.4756 886.488 82.0039 885.375 77.5215 885.375C73.3613 885.375 70.1094 886.298 67.7656 888.144C65.4512 889.96 64.2939 892.494 64.2939 895.746C64.2939 898.354 65.3926 900.565 67.5898 902.382C69.8164 904.169 73.5811 905.81 78.8838 907.304C84.2158 908.798 88.376 910.453 91.3643 912.27C94.3818 914.057 96.6084 916.151 98.0439 918.554C99.5088 920.956 100.241 923.783 100.241 927.035C100.241 932.221 98.2197 936.381 94.1768 939.516C90.1338 942.621 84.7285 944.174 77.9609 944.174C73.5664 944.174 69.4648 943.339 65.6562 941.669C61.8477 939.97 58.9033 937.655 56.8232 934.726C54.7725 931.796 53.7471 928.471 53.7471 924.75H62.2285C62.2285 928.617 63.6494 931.679 66.4912 933.935C69.3623 936.161 73.1855 937.274 77.9609 937.274C82.4141 937.274 85.8271 936.366 88.2002 934.55C90.5732 932.733 91.7598 930.258 91.7598 927.123C91.7598 923.988 90.6611 921.571 88.4639 919.872C86.2666 918.144 82.2822 916.444 76.5107 914.774ZM140.891 879.267L140.891 886.166H139.396C133.068 886.283 128.029 888.158 124.279 891.791C120.529 895.424 118.361 900.536 117.775 907.128C121.145 903.261 125.744 901.327 131.574 901.327C137.141 901.327 141.579 903.29 144.89 907.216C148.229 911.142 149.899 916.21 149.899 922.421C149.899 929.013 148.098 934.286 144.494 938.241C140.92 942.196 136.115 944.174 130.08 944.174C123.957 944.174 118.991 941.83 115.183 937.143C111.374 932.426 109.47 926.361 109.47 918.949V915.829C109.47 904.052 111.975 895.058 116.984 888.847C122.023 882.607 129.509 879.413 139.44 879.267H140.891ZM130.212 908.095C127.429 908.095 124.865 908.93 122.521 910.6C120.178 912.27 118.552 914.364 117.644 916.884V919.872C117.644 925.146 118.83 929.394 121.203 932.616C123.576 935.839 126.535 937.45 130.08 937.45C133.742 937.45 136.613 936.103 138.693 933.407C140.803 930.712 141.857 927.182 141.857 922.816C141.857 918.422 140.788 914.877 138.649 912.182C136.54 909.457 133.728 908.095 130.212 908.095ZM208.874 934.901C206.706 938.007 203.674 940.336 199.777 941.889C195.91 943.412 191.398 944.174 186.242 944.174C181.027 944.174 176.398 942.958 172.355 940.526C168.312 938.065 165.178 934.579 162.951 930.067C160.754 925.556 159.626 920.326 159.567 914.379V908.798C159.567 899.159 161.809 891.689 166.291 886.386C170.803 881.083 177.131 878.432 185.275 878.432C191.955 878.432 197.331 880.146 201.403 883.573C205.476 886.972 207.966 891.806 208.874 898.075H200.437C198.854 889.608 193.815 885.375 185.319 885.375C179.665 885.375 175.373 887.367 172.443 891.352C169.543 895.307 168.078 901.049 168.049 908.578V913.808C168.049 920.985 169.689 926.698 172.971 930.946C176.252 935.165 180.69 937.274 186.286 937.274C189.45 937.274 192.219 936.923 194.592 936.22C196.965 935.517 198.928 934.33 200.48 932.66V918.29H185.671V911.435H208.874V934.901ZM268.024 879.311V922.816C267.995 928.852 266.091 933.788 262.312 937.626C258.562 941.464 253.464 943.617 247.019 944.086L244.777 944.174C237.775 944.174 232.194 942.284 228.034 938.505C223.874 934.726 221.765 929.525 221.706 922.904L221.706 879.311H230.056L230.056 922.641C230.056 927.27 231.33 930.873 233.879 933.451C236.428 936 240.061 937.274 244.777 937.274C249.553 937.274 253.2 936 255.72 933.451C258.269 930.902 259.543 927.314 259.543 922.685V879.311H268.024ZM289.821 936.396H320.144V943.295H281.34V879.311H289.821V936.396ZM338.205 918.246V943.295H329.768V879.311H353.366C360.368 879.311 365.847 881.098 369.802 884.672C373.786 888.246 375.778 892.978 375.778 898.866C375.778 905.077 373.83 909.867 369.934 913.236C366.066 916.576 360.515 918.246 353.278 918.246H338.205ZM338.205 911.347H353.366C357.878 911.347 361.335 910.292 363.737 908.183C366.14 906.044 367.341 902.968 367.341 898.954C367.341 895.146 366.14 892.099 363.737 889.814C361.335 887.528 358.039 886.342 353.85 886.254H338.205V911.347ZM53.7471 1039.9C51.5791 1043.01 48.5469 1045.34 44.6504 1046.89C40.7832 1048.41 36.2715 1049.17 31.1152 1049.17C25.9004 1049.17 21.2715 1047.96 17.2285 1045.53C13.1855 1043.07 10.0508 1039.58 7.82422 1035.07C5.62695 1030.56 4.49902 1025.33 4.44043 1019.38L4.44043 1013.8C4.44043 1004.16 6.68164 996.689 11.1641 991.386C15.6758 986.083 22.0039 983.432 30.1484 983.432C36.8281 983.432 42.2041 985.146 46.2764 988.573C50.3486 991.972 52.8389 996.806 53.7471 1003.08H45.3096C43.7275 994.608 38.6885 990.375 30.1924 990.375C24.5381 990.375 20.2461 992.367 17.3164 996.352C14.416 1000.31 12.9512 1006.05 12.9219 1013.58V1018.81C12.9219 1025.99 14.5625 1031.7 17.8437 1035.95C21.125 1040.17 25.5635 1042.27 31.1592 1042.27C34.3232 1042.27 37.0918 1041.92 39.4648 1041.22C41.8379 1040.52 43.8008 1039.33 45.3535 1037.66V1023.29H30.5439V1016.43H53.7471V1039.9ZM112.897 984.311L112.897 1027.82C112.868 1033.85 110.964 1038.79 107.185 1042.63C103.435 1046.46 98.3369 1048.62 91.8916 1049.09L89.6504 1049.17C82.6484 1049.17 77.0674 1047.28 72.9072 1043.5C68.7471 1039.73 66.6377 1034.53 66.5791 1027.9L66.5791 984.311H74.9287L74.9287 1027.64C74.9287 1032.27 76.2031 1035.87 78.752 1038.45C81.3008 1041 84.9336 1042.27 89.6504 1042.27C94.4258 1042.27 98.0732 1041 100.593 1038.45C103.142 1035.9 104.416 1032.31 104.416 1027.68L104.416 984.311H112.897ZM134.694 1041.4H165.017V1048.29H126.213L126.213 984.311H134.694V1041.4ZM183.078 1023.25V1048.29H174.641V984.311H198.239C205.241 984.311 210.72 986.098 214.675 989.672C218.659 993.246 220.651 997.978 220.651 1003.87C220.651 1010.08 218.703 1014.87 214.807 1018.24C210.939 1021.58 205.388 1023.25 198.151 1023.25H183.078ZM183.078 1016.35H198.239C202.751 1016.35 206.208 1015.29 208.61 1013.18C211.013 1011.04 212.214 1007.97 212.214 1003.95C212.214 1000.15 211.013 997.099 208.61 994.814C206.208 992.528 202.912 991.342 198.723 991.254H183.078V1016.35ZM278.659 1039.9C276.491 1043.01 273.459 1045.34 269.562 1046.89C265.695 1048.41 261.184 1049.17 256.027 1049.17C250.812 1049.17 246.184 1047.96 242.141 1045.53C238.098 1043.07 234.963 1039.58 232.736 1035.07C230.539 1030.56 229.411 1025.33 229.353 1019.38V1013.8C229.353 1004.16 231.594 996.689 236.076 991.386C240.588 986.083 246.916 983.432 255.061 983.432C261.74 983.432 267.116 985.146 271.188 988.573C275.261 991.972 277.751 996.806 278.659 1003.08H270.222C268.64 994.608 263.601 990.375 255.104 990.375C249.45 990.375 245.158 992.367 242.229 996.352C239.328 1000.31 237.863 1006.05 237.834 1013.58V1018.81C237.834 1025.99 239.475 1031.7 242.756 1035.95C246.037 1040.17 250.476 1042.27 256.071 1042.27C259.235 1042.27 262.004 1041.92 264.377 1041.22C266.75 1040.52 268.713 1039.33 270.266 1037.66V1023.29H255.456V1016.43H278.659V1039.9ZM301.818 1048.29H293.381V984.311H301.818V1048.29ZM360.178 991.254H339.611V1048.29H331.218V991.254H310.695V984.311H360.178V991.254ZM418.845 1048.29H410.363L378.151 998.988V1048.29H369.67V984.311H378.151L410.451 1033.84V984.311H418.845V1048.29ZM483.049 1018.37C483.049 1024.64 481.994 1030.12 479.885 1034.8C477.775 1039.46 474.787 1043.02 470.92 1045.48C467.053 1047.94 462.541 1049.17 457.385 1049.17C452.346 1049.17 447.878 1047.94 443.981 1045.48C440.085 1042.99 437.053 1039.46 434.885 1034.89C432.746 1030.29 431.647 1024.97 431.589 1018.94V1014.33C431.589 1008.17 432.658 1002.74 434.797 998.022C436.936 993.305 439.953 989.701 443.85 987.211C447.775 984.691 452.258 983.432 457.297 983.432C462.424 983.432 466.936 984.677 470.832 987.167C474.758 989.628 477.775 993.217 479.885 997.934C481.994 1002.62 483.049 1008.09 483.049 1014.33V1018.37ZM474.655 1014.24C474.655 1006.65 473.132 1000.83 470.085 996.791C467.038 992.719 462.775 990.683 457.297 990.683C451.965 990.683 447.761 992.719 444.685 996.791C441.638 1000.83 440.07 1006.46 439.982 1013.67V1018.37C439.982 1025.72 441.521 1031.51 444.597 1035.73C447.702 1039.92 451.965 1042.01 457.385 1042.01C462.834 1042.01 467.053 1040.03 470.041 1036.08C473.029 1032.09 474.567 1026.4 474.655 1018.98V1014.24ZM495.705 1048.29V984.311H513.767C519.333 984.311 524.255 985.541 528.532 988.002C532.81 990.463 536.105 993.964 538.42 998.505C540.764 1003.05 541.95 1008.26 541.979 1014.15V1018.24C541.979 1024.27 540.808 1029.56 538.464 1034.1C536.149 1038.64 532.824 1042.13 528.488 1044.56C524.182 1046.99 519.157 1048.24 513.415 1048.29H495.705ZM504.143 991.254V1041.4H513.02C519.523 1041.4 524.577 1039.37 528.181 1035.33C531.813 1031.29 533.63 1025.53 533.63 1018.06V1014.33C533.63 1007.06 531.916 1001.42 528.488 997.406C525.09 993.363 520.256 991.313 513.986 991.254H504.143ZM590.935 1018.72H563.205V1041.4H595.417V1048.29H554.768V984.311H594.978V991.254H563.205V1011.82H590.935V1018.72ZM25.3584 1124.77C18.1221 1122.69 12.8486 1120.15 9.53809 1117.13C6.25684 1114.08 4.61621 1110.33 4.61621 1105.88C4.61621 1100.84 6.62305 1096.68 10.6367 1093.4C14.6797 1090.09 19.9238 1088.43 26.3691 1088.43C30.7637 1088.43 34.6748 1089.28 38.1025 1090.98C41.5596 1092.68 44.2256 1095.02 46.1006 1098.01C48.0049 1101 48.957 1104.27 48.957 1107.81H40.4756C40.4756 1103.94 39.2451 1100.91 36.7842 1098.71C34.3232 1096.49 30.8516 1095.38 26.3691 1095.38C22.209 1095.38 18.957 1096.3 16.6133 1098.14C14.2988 1099.96 13.1416 1102.49 13.1416 1105.75C13.1416 1108.35 14.2402 1110.57 16.4375 1112.38C18.6641 1114.17 22.4287 1115.81 27.7314 1117.3C33.0635 1118.8 37.2236 1120.45 40.2119 1122.27C43.2295 1124.06 45.4561 1126.15 46.8916 1128.55C48.3564 1130.96 49.0889 1133.78 49.0889 1137.04C49.0889 1142.22 47.0674 1146.38 43.0244 1149.52C38.9814 1152.62 33.5762 1154.17 26.8086 1154.17C22.4141 1154.17 18.3125 1153.34 14.5039 1151.67C10.6953 1149.97 7.75098 1147.66 5.6709 1144.73C3.62012 1141.8 2.59473 1138.47 2.59473 1134.75H11.0762C11.0762 1138.62 12.4971 1141.68 15.3389 1143.93C18.21 1146.16 22.0332 1147.27 26.8086 1147.27C31.2617 1147.27 34.6748 1146.37 37.0479 1144.55C39.4209 1142.73 40.6074 1140.26 40.6074 1137.12C40.6074 1133.99 39.5088 1131.57 37.3115 1129.87C35.1143 1128.14 31.1299 1126.44 25.3584 1124.77ZM95.2754 1136.6H68.4687L62.4482 1153.29H53.7471L78.1807 1089.31H85.5635L110.041 1153.29H101.384L95.2754 1136.6ZM71.0176 1129.65H92.7705L81.8721 1099.73L71.0176 1129.65ZM137.507 1124.77C130.271 1122.69 124.997 1120.15 121.687 1117.13C118.405 1114.08 116.765 1110.33 116.765 1105.88C116.765 1100.84 118.771 1096.68 122.785 1093.4C126.828 1090.09 132.072 1088.43 138.518 1088.43C142.912 1088.43 146.823 1089.28 150.251 1090.98C153.708 1092.68 156.374 1095.02 158.249 1098.01C160.153 1101 161.105 1104.27 161.105 1107.81H152.624C152.624 1103.94 151.394 1100.91 148.933 1098.71C146.472 1096.49 143 1095.38 138.518 1095.38C134.357 1095.38 131.105 1096.3 128.762 1098.14C126.447 1099.96 125.29 1102.49 125.29 1105.75C125.29 1108.35 126.389 1110.57 128.586 1112.38C130.812 1114.17 134.577 1115.81 139.88 1117.3C145.212 1118.8 149.372 1120.45 152.36 1122.27C155.378 1124.06 157.604 1126.15 159.04 1128.55C160.505 1130.96 161.237 1133.78 161.237 1137.04C161.237 1142.22 159.216 1146.38 155.173 1149.52C151.13 1152.62 145.725 1154.17 138.957 1154.17C134.562 1154.17 130.461 1153.34 126.652 1151.67C122.844 1149.97 119.899 1147.66 117.819 1144.73C115.769 1141.8 114.743 1138.47 114.743 1134.75H123.225C123.225 1138.62 124.646 1141.68 127.487 1143.93C130.358 1146.16 134.182 1147.27 138.957 1147.27C143.41 1147.27 146.823 1146.37 149.196 1144.55C151.569 1142.73 152.756 1140.26 152.756 1137.12C152.756 1133.99 151.657 1131.57 149.46 1129.87C147.263 1128.14 143.278 1126.44 137.507 1124.77ZM190.944 1124.77C183.708 1122.69 178.435 1120.15 175.124 1117.13C171.843 1114.08 170.202 1110.33 170.202 1105.88C170.202 1100.84 172.209 1096.68 176.223 1093.4C180.266 1090.09 185.51 1088.43 191.955 1088.43C196.35 1088.43 200.261 1089.28 203.688 1090.98C207.146 1092.68 209.812 1095.02 211.687 1098.01C213.591 1101 214.543 1104.27 214.543 1107.81H206.062C206.062 1103.94 204.831 1100.91 202.37 1098.71C199.909 1096.49 196.437 1095.38 191.955 1095.38C187.795 1095.38 184.543 1096.3 182.199 1098.14C179.885 1099.96 178.728 1102.49 178.728 1105.75C178.728 1108.35 179.826 1110.57 182.023 1112.38C184.25 1114.17 188.015 1115.81 193.317 1117.3C198.649 1118.8 202.81 1120.45 205.798 1122.27C208.815 1124.06 211.042 1126.15 212.478 1128.55C213.942 1130.96 214.675 1133.78 214.675 1137.04C214.675 1142.22 212.653 1146.38 208.61 1149.52C204.567 1152.62 199.162 1154.17 192.395 1154.17C188 1154.17 183.898 1153.34 180.09 1151.67C176.281 1149.97 173.337 1147.66 171.257 1144.73C169.206 1141.8 168.181 1138.47 168.181 1134.75H176.662C176.662 1138.62 178.083 1141.68 180.925 1143.93C183.796 1146.16 187.619 1147.27 192.395 1147.27C196.848 1147.27 200.261 1146.37 202.634 1144.55C205.007 1142.73 206.193 1140.26 206.193 1137.12C206.193 1133.99 205.095 1131.57 202.897 1129.87C200.7 1128.14 196.716 1126.44 190.944 1124.77Z" fill="black"/>
<path d="M272.771 -115.099C270.603 -111.993 267.57 -109.664 263.674 -108.111C259.807 -106.588 255.295 -105.826 250.139 -105.826C244.924 -105.826 240.295 -107.042 236.252 -109.474C232.209 -111.935 229.074 -115.421 226.848 -119.933C224.65 -124.444 223.522 -129.674 223.464 -135.621V-141.202C223.464 -150.841 225.705 -158.311 230.188 -163.614C234.699 -168.917 241.027 -171.568 249.172 -171.568C255.852 -171.568 261.228 -169.854 265.3 -166.427C269.372 -163.028 271.862 -158.194 272.771 -151.925H264.333C262.751 -160.392 257.712 -164.625 249.216 -164.625C243.562 -164.625 239.27 -162.633 236.34 -158.648C233.439 -154.693 231.975 -148.951 231.945 -141.422V-136.192C231.945 -129.015 233.586 -123.302 236.867 -119.054C240.148 -114.835 244.587 -112.726 250.183 -112.726C253.347 -112.726 256.115 -113.077 258.488 -113.78C260.861 -114.483 262.824 -115.67 264.377 -117.34V-131.71H249.567V-138.565H272.771V-115.099ZM322.209 -123.404H295.402L289.382 -106.705H280.681L305.114 -170.689H312.497L336.975 -106.705H328.317L322.209 -123.404ZM297.951 -130.348H319.704L308.806 -160.274L297.951 -130.348ZM384.084 -163.746H363.518V-106.705H355.124V-163.746H334.602V-170.689H384.084V-163.746ZM411.726 -135.226C404.489 -137.306 399.216 -139.854 395.905 -142.872C392.624 -145.919 390.983 -149.669 390.983 -154.122C390.983 -159.161 392.99 -163.321 397.004 -166.602C401.047 -169.913 406.291 -171.568 412.736 -171.568C417.131 -171.568 421.042 -170.719 424.47 -169.019C427.927 -167.32 430.593 -164.977 432.468 -161.988C434.372 -159 435.324 -155.733 435.324 -152.188H426.843C426.843 -156.056 425.612 -159.088 423.151 -161.285C420.69 -163.512 417.219 -164.625 412.736 -164.625C408.576 -164.625 405.324 -163.702 402.98 -161.856C400.666 -160.04 399.509 -157.506 399.509 -154.254C399.509 -151.646 400.607 -149.435 402.805 -147.618C405.031 -145.831 408.796 -144.19 414.099 -142.696C419.431 -141.202 423.591 -139.547 426.579 -137.73C429.597 -135.943 431.823 -133.849 433.259 -131.446C434.724 -129.044 435.456 -126.217 435.456 -122.965C435.456 -117.779 433.435 -113.619 429.392 -110.484C425.349 -107.379 419.943 -105.826 413.176 -105.826C408.781 -105.826 404.68 -106.661 400.871 -108.331C397.062 -110.03 394.118 -112.345 392.038 -115.274C389.987 -118.204 388.962 -121.529 388.962 -125.25H397.443C397.443 -121.383 398.864 -118.321 401.706 -116.065C404.577 -113.839 408.4 -112.726 413.176 -112.726C417.629 -112.726 421.042 -113.634 423.415 -115.45C425.788 -117.267 426.975 -119.742 426.975 -122.877C426.975 -126.012 425.876 -128.429 423.679 -130.128C421.481 -131.856 417.497 -133.556 411.726 -135.226ZM446.311 -106.705V-170.689H467.229C474.172 -170.689 479.387 -169.254 482.873 -166.383C486.389 -163.512 488.146 -159.264 488.146 -153.639C488.146 -150.65 487.297 -147.999 485.598 -145.685C483.898 -143.399 481.584 -141.627 478.654 -140.367C482.111 -139.4 484.836 -137.555 486.828 -134.83C488.85 -132.135 489.86 -128.912 489.86 -125.162C489.86 -119.42 488 -114.908 484.279 -111.627C480.559 -108.346 475.3 -106.705 468.503 -106.705H446.311ZM454.748 -136.632V-113.604H468.679C472.604 -113.604 475.695 -114.615 477.951 -116.637C480.236 -118.687 481.379 -121.5 481.379 -125.074C481.379 -132.779 477.189 -136.632 468.811 -136.632H454.748ZM454.748 -143.399H467.492C471.184 -143.399 474.128 -144.322 476.325 -146.168C478.552 -148.014 479.665 -150.518 479.665 -153.683C479.665 -157.198 478.64 -159.747 476.589 -161.329C474.538 -162.94 471.418 -163.746 467.229 -163.746H454.748V-143.399ZM519.436 -138.565L536.135 -170.689H545.715L523.654 -130.567V-106.705H515.217V-130.567L493.156 -170.689H502.824L519.436 -138.565ZM208.874 199.901C206.706 203.007 203.674 205.336 199.777 206.889C195.91 208.412 191.398 209.174 186.242 209.174C181.027 209.174 176.398 207.958 172.355 205.526C168.312 203.065 165.178 199.579 162.951 195.067C160.754 190.556 159.626 185.326 159.567 179.379V173.798C159.567 164.159 161.809 156.689 166.291 151.386C170.803 146.083 177.131 143.432 185.275 143.432C191.955 143.432 197.331 145.146 201.403 148.573C205.476 151.972 207.966 156.806 208.874 163.075H200.437C198.854 154.608 193.815 150.375 185.319 150.375C179.665 150.375 175.373 152.367 172.443 156.352C169.543 160.307 168.078 166.049 168.049 173.578V178.808C168.049 185.985 169.689 191.698 172.971 195.946C176.252 200.165 180.69 202.274 186.286 202.274C189.45 202.274 192.219 201.923 194.592 201.22C196.965 200.517 198.928 199.33 200.48 197.66V183.29H185.671V176.435H208.874V199.901ZM258.312 191.596H231.506L225.485 208.295H216.784L241.218 144.311H248.601L273.078 208.295H264.421L258.312 191.596ZM234.055 184.652H255.808L244.909 154.726L234.055 184.652ZM320.187 151.254H299.621V208.295H291.228V151.254H270.705V144.311H320.187V151.254ZM347.829 179.774C340.593 177.694 335.319 175.146 332.009 172.128C328.728 169.081 327.087 165.331 327.087 160.878C327.087 155.839 329.094 151.679 333.107 148.398C337.15 145.087 342.395 143.432 348.84 143.432C353.234 143.432 357.146 144.281 360.573 145.981C364.03 147.68 366.696 150.023 368.571 153.012C370.476 156 371.428 159.267 371.428 162.812H362.946C362.946 158.944 361.716 155.912 359.255 153.715C356.794 151.488 353.322 150.375 348.84 150.375C344.68 150.375 341.428 151.298 339.084 153.144C336.77 154.96 335.612 157.494 335.612 160.746C335.612 163.354 336.711 165.565 338.908 167.382C341.135 169.169 344.899 170.81 350.202 172.304C355.534 173.798 359.694 175.453 362.683 177.27C365.7 179.057 367.927 181.151 369.362 183.554C370.827 185.956 371.56 188.783 371.56 192.035C371.56 197.221 369.538 201.381 365.495 204.516C361.452 207.621 356.047 209.174 349.279 209.174C344.885 209.174 340.783 208.339 336.975 206.669C333.166 204.97 330.222 202.655 328.142 199.726C326.091 196.796 325.065 193.471 325.065 189.75H333.547C333.547 193.617 334.968 196.679 337.81 198.935C340.681 201.161 344.504 202.274 349.279 202.274C353.732 202.274 357.146 201.366 359.519 199.55C361.892 197.733 363.078 195.258 363.078 192.123C363.078 188.988 361.979 186.571 359.782 184.872C357.585 183.144 353.601 181.444 347.829 179.774ZM382.414 208.295V144.311H403.332C410.275 144.311 415.49 145.746 418.977 148.617C422.492 151.488 424.25 155.736 424.25 161.361C424.25 164.35 423.4 167.001 421.701 169.315C420.002 171.601 417.687 173.373 414.758 174.633C418.215 175.6 420.939 177.445 422.932 180.17C424.953 182.865 425.964 186.088 425.964 189.838C425.964 195.58 424.104 200.092 420.383 203.373C416.662 206.654 411.403 208.295 404.606 208.295H382.414ZM390.852 178.368V201.396H404.782C408.708 201.396 411.799 200.385 414.055 198.363C416.34 196.313 417.482 193.5 417.482 189.926C417.482 182.221 413.293 178.368 404.914 178.368H390.852ZM390.852 171.601H403.596C407.287 171.601 410.231 170.678 412.429 168.832C414.655 166.986 415.769 164.482 415.769 161.317C415.769 157.802 414.743 155.253 412.692 153.671C410.642 152.06 407.521 151.254 403.332 151.254H390.852V171.601ZM455.539 176.435L472.238 144.311H481.818L459.758 184.433V208.295H451.32V184.433L429.26 144.311H438.928L455.539 176.435ZM272.771 619.901C270.603 623.007 267.57 625.336 263.674 626.889C259.807 628.412 255.295 629.174 250.139 629.174C244.924 629.174 240.295 627.958 236.252 625.526C232.209 623.065 229.074 619.579 226.848 615.067C224.65 610.556 223.522 605.326 223.464 599.379V593.798C223.464 584.159 225.705 576.689 230.187 571.386C234.699 566.083 241.027 563.432 249.172 563.432C255.852 563.432 261.228 565.146 265.3 568.573C269.372 571.972 271.862 576.806 272.771 583.075H264.333C262.751 574.608 257.712 570.375 249.216 570.375C243.562 570.375 239.27 572.367 236.34 576.352C233.439 580.307 231.975 586.049 231.945 593.578V598.808C231.945 605.985 233.586 611.698 236.867 615.946C240.148 620.165 244.587 622.274 250.183 622.274C253.347 622.274 256.115 621.923 258.488 621.22C260.861 620.517 262.824 619.33 264.377 617.66V603.29H249.567V596.435H272.771V619.901ZM322.209 611.596H295.402L289.382 628.295H280.681L305.114 564.311H312.497L336.975 628.295H328.317L322.209 611.596ZM297.951 604.652H319.704L308.806 574.726L297.951 604.652ZM384.084 571.254H363.518V628.295H355.124V571.254H334.602V564.311H384.084V571.254ZM411.726 599.774C404.489 597.694 399.216 595.146 395.905 592.128C392.624 589.081 390.983 585.331 390.983 580.878C390.983 575.839 392.99 571.679 397.004 568.398C401.047 565.087 406.291 563.432 412.736 563.432C417.131 563.432 421.042 564.281 424.47 565.981C427.927 567.68 430.593 570.023 432.468 573.012C434.372 576 435.324 579.267 435.324 582.812H426.843C426.843 578.944 425.612 575.912 423.151 573.715C420.69 571.488 417.219 570.375 412.736 570.375C408.576 570.375 405.324 571.298 402.98 573.144C400.666 574.96 399.509 577.494 399.509 580.746C399.509 583.354 400.607 585.565 402.805 587.382C405.031 589.169 408.796 590.81 414.099 592.304C419.431 593.798 423.591 595.453 426.579 597.27C429.597 599.057 431.823 601.151 433.259 603.554C434.724 605.956 435.456 608.783 435.456 612.035C435.456 617.221 433.435 621.381 429.392 624.516C425.349 627.621 419.943 629.174 413.176 629.174C408.781 629.174 404.68 628.339 400.871 626.669C397.062 624.97 394.118 622.655 392.038 619.726C389.987 616.796 388.962 613.471 388.962 609.75H397.443C397.443 613.617 398.864 616.679 401.706 618.935C404.577 621.161 408.4 622.274 413.176 622.274C417.629 622.274 421.042 621.366 423.415 619.55C425.788 617.733 426.975 615.258 426.975 612.123C426.975 608.988 425.876 606.571 423.679 604.872C421.481 603.144 417.497 601.444 411.726 599.774ZM446.311 628.295V564.311H467.229C474.172 564.311 479.387 565.746 482.873 568.617C486.389 571.488 488.146 575.736 488.146 581.361C488.146 584.35 487.297 587.001 485.598 589.315C483.898 591.601 481.584 593.373 478.654 594.633C482.111 595.6 484.836 597.445 486.828 600.17C488.85 602.865 489.86 606.088 489.86 609.838C489.86 615.58 488 620.092 484.279 623.373C480.559 626.654 475.3 628.295 468.503 628.295H446.311ZM454.748 598.368V621.396H468.679C472.604 621.396 475.695 620.385 477.951 618.363C480.236 616.313 481.379 613.5 481.379 609.926C481.379 602.221 477.189 598.368 468.811 598.368H454.748ZM454.748 591.601H467.492C471.184 591.601 474.128 590.678 476.325 588.832C478.552 586.986 479.665 584.482 479.665 581.317C479.665 577.802 478.64 575.253 476.589 573.671C474.538 572.06 471.418 571.254 467.229 571.254H454.748V591.601ZM519.436 596.435L536.135 564.311H545.715L523.654 604.433L523.654 628.295H515.217L515.217 604.433L493.156 564.311H502.824L519.436 596.435ZM272.771 1144.9C270.603 1148.01 267.57 1150.34 263.674 1151.89C259.807 1153.41 255.295 1154.17 250.139 1154.17C244.924 1154.17 240.295 1152.96 236.252 1150.53C232.209 1148.07 229.074 1144.58 226.848 1140.07C224.65 1135.56 223.522 1130.33 223.464 1124.38V1118.8C223.464 1109.16 225.705 1101.69 230.187 1096.39C234.699 1091.08 241.027 1088.43 249.172 1088.43C255.852 1088.43 261.228 1090.15 265.3 1093.57C269.372 1096.97 271.862 1101.81 272.771 1108.08H264.333C262.751 1099.61 257.712 1095.38 249.216 1095.38C243.562 1095.38 239.27 1097.37 236.34 1101.35C233.439 1105.31 231.975 1111.05 231.945 1118.58V1123.81C231.945 1130.99 233.586 1136.7 236.867 1140.95C240.148 1145.17 244.587 1147.27 250.183 1147.27C253.347 1147.27 256.115 1146.92 258.488 1146.22C260.861 1145.52 262.824 1144.33 264.377 1142.66L264.377 1128.29H249.567V1121.43H272.771L272.771 1144.9ZM322.209 1136.6H295.402L289.382 1153.29H280.681L305.114 1089.31H312.497L336.975 1153.29H328.317L322.209 1136.6ZM297.951 1129.65H319.704L308.806 1099.73L297.951 1129.65ZM384.084 1096.25H363.518L363.518 1153.29H355.124L355.124 1096.25H334.602V1089.31H384.084V1096.25ZM411.726 1124.77C404.489 1122.69 399.216 1120.15 395.905 1117.13C392.624 1114.08 390.983 1110.33 390.983 1105.88C390.983 1100.84 392.99 1096.68 397.004 1093.4C401.047 1090.09 406.291 1088.43 412.736 1088.43C417.131 1088.43 421.042 1089.28 424.47 1090.98C427.927 1092.68 430.593 1095.02 432.468 1098.01C434.372 1101 435.324 1104.27 435.324 1107.81H426.843C426.843 1103.94 425.612 1100.91 423.151 1098.71C420.69 1096.49 417.219 1095.38 412.736 1095.38C408.576 1095.38 405.324 1096.3 402.98 1098.14C400.666 1099.96 399.509 1102.49 399.509 1105.75C399.509 1108.35 400.607 1110.57 402.805 1112.38C405.031 1114.17 408.796 1115.81 414.099 1117.3C419.431 1118.8 423.591 1120.45 426.579 1122.27C429.597 1124.06 431.823 1126.15 433.259 1128.55C434.724 1130.96 435.456 1133.78 435.456 1137.04C435.456 1142.22 433.435 1146.38 429.392 1149.52C425.349 1152.62 419.943 1154.17 413.176 1154.17C408.781 1154.17 404.68 1153.34 400.871 1151.67C397.062 1149.97 394.118 1147.66 392.038 1144.73C389.987 1141.8 388.962 1138.47 388.962 1134.75H397.443C397.443 1138.62 398.864 1141.68 401.706 1143.93C404.577 1146.16 408.4 1147.27 413.176 1147.27C417.629 1147.27 421.042 1146.37 423.415 1144.55C425.788 1142.73 426.975 1140.26 426.975 1137.12C426.975 1133.99 425.876 1131.57 423.679 1129.87C421.481 1128.14 417.497 1126.44 411.726 1124.77ZM446.311 1153.29L446.311 1089.31H467.229C474.172 1089.31 479.387 1090.75 482.873 1093.62C486.389 1096.49 488.146 1100.74 488.146 1106.36C488.146 1109.35 487.297 1112 485.598 1114.32C483.898 1116.6 481.584 1118.37 478.654 1119.63C482.111 1120.6 484.836 1122.45 486.828 1125.17C488.85 1127.87 489.86 1131.09 489.86 1134.84C489.86 1140.58 488 1145.09 484.279 1148.37C480.559 1151.65 475.3 1153.29 468.503 1153.29H446.311ZM454.748 1123.37L454.748 1146.4H468.679C472.604 1146.4 475.695 1145.38 477.951 1143.36C480.236 1141.31 481.379 1138.5 481.379 1134.93C481.379 1127.22 477.189 1123.37 468.811 1123.37H454.748ZM454.748 1116.6H467.492C471.184 1116.6 474.128 1115.68 476.325 1113.83C478.552 1111.99 479.665 1109.48 479.665 1106.32C479.665 1102.8 478.64 1100.25 476.589 1098.67C474.538 1097.06 471.418 1096.25 467.229 1096.25H454.748V1116.6ZM519.436 1121.43L536.135 1089.31H545.715L523.654 1129.43V1153.29H515.217V1129.43L493.156 1089.31H502.824L519.436 1121.43Z" fill="#663399"/>
<path d="M55.6807 -1.70502H47.1992V-31.2802H14.9434V-1.70502H6.50586L6.50586 -65.6894H14.9434L14.9434 -38.1796H47.1992V-65.6894H55.6807V-1.70502ZM113.557 -58.746H92.9902L92.9902 -1.70502H84.5967L84.5967 -58.746H64.0742V-65.6894H113.557V-58.746ZM133.947 -65.6894L154.865 -13.4824L175.783 -65.6894H186.726V-1.70502H178.288V-26.622L179.079 -53.5165L158.073 -1.70502H151.613L130.651 -53.3847L131.486 -26.622V-1.70502H123.049L123.049 -65.6894H133.947ZM210.104 -8.60443H240.427V-1.70502H201.623V-65.6894H210.104V-8.60443ZM251.677 -33.7851L254.929 -65.6894H287.712V-58.1747H261.828L259.895 -40.7285C263.029 -42.5742 266.589 -43.497 270.573 -43.497C276.403 -43.497 281.032 -41.5634 284.46 -37.6962C287.888 -33.8583 289.602 -28.6581 289.602 -22.0956C289.602 -15.5038 287.814 -10.3036 284.24 -6.49506C280.695 -2.71576 275.729 -0.826111 269.343 -0.826111C263.688 -0.826111 259.074 -2.39349 255.5 -5.52826C251.926 -8.66302 249.89 -12.999 249.392 -18.5361H257.082C257.58 -14.874 258.884 -12.1054 260.993 -10.2304C263.103 -8.3847 265.886 -7.46185 269.343 -7.46185C273.122 -7.46185 276.081 -8.75092 278.22 -11.329C280.388 -13.9072 281.472 -17.4667 281.472 -22.0078C281.472 -26.2851 280.3 -29.7128 277.956 -32.291C275.642 -34.8984 272.551 -36.2021 268.684 -36.2021C265.139 -36.2021 262.355 -35.4257 260.334 -33.873L258.181 -32.1152L251.677 -33.7851ZM555.603 596.215L558.854 564.311H591.638V571.825H565.754L563.82 589.272C566.955 587.426 570.515 586.503 574.499 586.503C580.329 586.503 584.958 588.437 588.386 592.304C591.813 596.142 593.527 601.342 593.527 607.904C593.527 614.496 591.74 619.696 588.166 623.505C584.621 627.284 579.655 629.174 573.269 629.174C567.614 629.174 563 627.607 559.426 624.472C555.852 621.337 553.815 617.001 553.317 611.464H561.008C561.506 615.126 562.81 617.895 564.919 619.77C567.028 621.615 569.812 622.538 573.269 622.538C577.048 622.538 580.007 621.249 582.146 618.671C584.313 616.093 585.397 612.533 585.397 607.992C585.397 603.715 584.226 600.287 581.882 597.709C579.567 595.102 576.477 593.798 572.609 593.798C569.064 593.798 566.281 594.574 564.26 596.127L562.106 597.885L555.603 596.215ZM555.603 1121.21L558.854 1089.31H591.638V1096.83H565.754L563.82 1114.27C566.955 1112.43 570.515 1111.5 574.499 1111.5C580.329 1111.5 584.958 1113.44 588.386 1117.3C591.813 1121.14 593.527 1126.34 593.527 1132.9C593.527 1139.5 591.74 1144.7 588.166 1148.5C584.621 1152.28 579.655 1154.17 573.269 1154.17C567.614 1154.17 563 1152.61 559.426 1149.47C555.852 1146.34 553.815 1142 553.317 1136.46H561.008C561.506 1140.13 562.81 1142.89 564.919 1144.77C567.028 1146.62 569.812 1147.54 573.269 1147.54C577.048 1147.54 580.007 1146.25 582.146 1143.67C584.313 1141.09 585.397 1137.53 585.397 1132.99C585.397 1128.71 584.226 1125.29 581.882 1122.71C579.567 1120.1 576.477 1118.8 572.609 1118.8C569.064 1118.8 566.281 1119.57 564.26 1121.13L562.106 1122.88L555.603 1121.21Z" fill="#040404"/>
<path d="M321.77 -12.9111L340.051 -65.6894H349.279L325.549 -1.70502H318.078L294.392 -65.6894H303.576L321.77 -12.9111ZM402.937 -65.6894V-22.1835C402.907 -16.1484 401.003 -11.2119 397.224 -7.37396C393.474 -3.53607 388.376 -1.38275 381.931 -0.914001L379.689 -0.826111C372.688 -0.826111 367.106 -2.71576 362.946 -6.49506C358.786 -10.2744 356.677 -15.4745 356.618 -22.0956V-65.6894H364.968V-22.3593C364.968 -17.7304 366.242 -14.1269 368.791 -11.5488C371.34 -8.99994 374.973 -7.72552 379.689 -7.72552C384.465 -7.72552 388.112 -8.99994 390.632 -11.5488C393.181 -14.0976 394.455 -17.6865 394.455 -22.3154V-65.6894H402.937ZM452.419 -31.2802H424.689V-8.60443H456.901V-1.70502H416.252V-65.6894H456.462V-58.746H424.689V-38.1796H452.419V-31.2802ZM27.6875 722.089L45.9687 669.311H55.1973L31.4668 733.295H23.9961L0.30957 669.311H9.49414L27.6875 722.089ZM108.854 669.311V712.816C108.825 718.852 106.921 723.788 103.142 727.626C99.3916 731.464 94.2939 733.617 87.8486 734.086L85.6074 734.174C78.6055 734.174 73.0244 732.284 68.8643 728.505C64.7041 724.726 62.5947 719.525 62.5361 712.904L62.5361 669.311H70.8857V712.641C70.8857 717.27 72.1602 720.873 74.709 723.451C77.2578 726 80.8906 727.274 85.6074 727.274C90.3828 727.274 94.0303 726 96.5498 723.451C99.0986 720.902 100.373 717.314 100.373 712.685V669.311H108.854ZM158.337 703.72H130.607V726.396H162.819V733.295H122.17V669.311H162.38V676.254H130.607V696.82H158.337V703.72ZM27.6875 1247.09L45.9687 1194.31H55.1973L31.4668 1258.29H23.9961L0.30957 1194.31H9.49414L27.6875 1247.09ZM108.854 1194.31V1237.82C108.825 1243.85 106.921 1248.79 103.142 1252.63C99.3916 1256.46 94.2939 1258.62 87.8486 1259.09L85.6074 1259.17C78.6055 1259.17 73.0244 1257.28 68.8643 1253.5C64.7041 1249.73 62.5947 1244.53 62.5361 1237.9L62.5361 1194.31H70.8857V1237.64C70.8857 1242.27 72.1602 1245.87 74.709 1248.45C77.2578 1251 80.8906 1252.27 85.6074 1252.27C90.3828 1252.27 94.0303 1251 96.5498 1248.45C99.0986 1245.9 100.373 1242.31 100.373 1237.68V1194.31H108.854ZM158.337 1228.72H130.607V1251.4H162.819V1258.29H122.17V1194.31H162.38V1201.25H130.607V1221.82H158.337V1228.72Z" fill="#41B883"/>
<path d="M50.7148 46.254H30.1484L30.1484 103.295H21.7549L21.7549 46.254H1.23242L1.23242 39.3106H50.7148V46.254ZM80.4219 71.4346L97.1211 39.3106H106.701L84.6406 79.4327V103.295H76.2031V79.4327L54.1426 39.3106H63.8105L80.4219 71.4346ZM123.4 78.2462V103.295H114.963V39.3106H138.562C145.563 39.3106 151.042 41.0977 154.997 44.6719C158.981 48.2462 160.974 52.9776 160.974 58.8663C160.974 65.0772 159.025 69.8672 155.129 73.2364C151.262 76.5762 145.71 78.2462 138.474 78.2462H123.4ZM123.4 71.3467H138.562C143.073 71.3467 146.53 70.2921 148.933 68.1827C151.335 66.044 152.536 62.9678 152.536 58.9542C152.536 55.1456 151.335 52.0987 148.933 49.8135C146.53 47.5284 143.234 46.3419 139.045 46.254H123.4V71.3467ZM207.907 73.7198H180.178V96.3956H212.39V103.295H171.74V39.3106H211.95V46.254H180.178V66.8204H207.907V73.7198ZM241.745 74.7745C234.509 72.6944 229.235 70.1456 225.925 67.128C222.644 64.0811 221.003 60.3311 221.003 55.878C221.003 50.8389 223.01 46.6788 227.023 43.3975C231.066 40.087 236.311 38.4317 242.756 38.4317C247.15 38.4317 251.062 39.2813 254.489 40.9805C257.946 42.6797 260.612 45.0235 262.487 48.0118C264.392 51.0001 265.344 54.2667 265.344 57.8116H256.862C256.862 53.9444 255.632 50.9122 253.171 48.7149C250.71 46.4883 247.238 45.3751 242.756 45.3751C238.596 45.3751 235.344 46.2979 233 48.1436C230.686 49.96 229.528 52.4942 229.528 55.7462C229.528 58.3536 230.627 60.5655 232.824 62.3819C235.051 64.169 238.815 65.8096 244.118 67.3038C249.45 68.7979 253.61 70.4532 256.599 72.2696C259.616 74.0567 261.843 76.1514 263.278 78.5538C264.743 80.9561 265.476 83.7833 265.476 87.0352C265.476 92.2208 263.454 96.3809 259.411 99.5157C255.368 102.621 249.963 104.174 243.195 104.174C238.801 104.174 234.699 103.339 230.891 101.669C227.082 99.9698 224.138 97.6553 222.058 94.7256C220.007 91.796 218.981 88.4708 218.981 84.7501H227.463C227.463 88.6172 228.884 91.6788 231.726 93.9346C234.597 96.1612 238.42 97.2745 243.195 97.2745C247.648 97.2745 251.062 96.3663 253.435 94.5499C255.808 92.7335 256.994 90.2579 256.994 87.1231C256.994 83.9883 255.896 81.5714 253.698 79.8721C251.501 78.1436 247.517 76.4444 241.745 74.7745ZM323.396 82.9922C322.604 89.7598 320.1 94.9893 315.881 98.6807C311.691 102.343 306.11 104.174 299.138 104.174C291.579 104.174 285.515 101.464 280.944 96.044C276.403 90.6241 274.133 83.3731 274.133 74.2911V68.1387C274.133 62.1915 275.188 56.962 277.297 52.4503C279.436 47.9385 282.453 44.4815 286.35 42.0792C290.246 39.6475 294.758 38.4317 299.885 38.4317C306.682 38.4317 312.131 40.336 316.232 44.1446C320.334 47.9239 322.722 53.168 323.396 59.877H314.914C314.182 54.7794 312.585 51.088 310.124 48.8028C307.692 46.5176 304.279 45.3751 299.885 45.3751C294.494 45.3751 290.261 47.3672 287.185 51.3516C284.138 55.336 282.614 61.0049 282.614 68.3585V74.5547C282.614 81.4981 284.064 87.0206 286.965 91.1221C289.865 95.2237 293.923 97.2745 299.138 97.2745C303.825 97.2745 307.414 96.2198 309.904 94.1104C312.424 91.9717 314.094 88.2657 314.914 82.9922H323.396ZM358.42 77.4112H343.391V103.295H334.909V39.3106H356.091C363.298 39.3106 368.835 40.9512 372.702 44.2325C376.599 47.5137 378.547 52.2891 378.547 58.5587C378.547 62.543 377.463 66.0147 375.295 68.9737C373.156 71.9327 370.168 74.1446 366.33 75.6094L381.359 102.768V103.295H372.307L358.42 77.4112ZM343.391 70.5118H356.354C360.544 70.5118 363.869 69.4278 366.33 67.2598C368.82 65.0919 370.065 62.1915 370.065 58.5587C370.065 54.6036 368.879 51.5714 366.506 49.462C364.162 47.3526 360.764 46.2833 356.311 46.254H343.391V70.5118ZM399.465 103.295H391.027V39.3106H399.465V103.295ZM423.371 78.2462V103.295H414.934V39.3106H438.532C445.534 39.3106 451.013 41.0977 454.968 44.6719C458.952 48.2462 460.944 52.9776 460.944 58.8663C460.944 65.0772 458.996 69.8672 455.1 73.2364C451.232 76.5762 445.681 78.2462 438.444 78.2462H423.371ZM423.371 71.3467H438.532C443.044 71.3467 446.501 70.2921 448.903 68.1827C451.306 66.044 452.507 62.9678 452.507 58.9542C452.507 55.1456 451.306 52.0987 448.903 49.8135C446.501 47.5284 443.205 46.3419 439.016 46.254H423.371V71.3467ZM515.92 46.254L495.354 46.254V103.295H486.96V46.254H466.438V39.3106L515.92 39.3106V46.254ZM50.7148 781.254H30.1484L30.1484 838.295H21.7549L21.7549 781.254H1.23242L1.23242 774.311H50.7148V781.254ZM80.4219 806.435L97.1211 774.311H106.701L84.6406 814.433V838.295H76.2031V814.433L54.1426 774.311H63.8105L80.4219 806.435ZM123.4 813.246V838.295H114.963V774.311H138.562C145.563 774.311 151.042 776.098 154.997 779.672C158.981 783.246 160.974 787.978 160.974 793.866C160.974 800.077 159.025 804.867 155.129 808.236C151.262 811.576 145.71 813.246 138.474 813.246H123.4ZM123.4 806.347H138.562C143.073 806.347 146.53 805.292 148.933 803.183C151.335 801.044 152.536 797.968 152.536 793.954C152.536 790.146 151.335 787.099 148.933 784.814C146.53 782.528 143.234 781.342 139.045 781.254H123.4V806.347ZM207.907 808.72H180.178V831.396H212.39V838.295H171.74V774.311H211.95V781.254H180.178V801.82H207.907V808.72ZM241.745 809.774C234.509 807.694 229.235 805.146 225.925 802.128C222.644 799.081 221.003 795.331 221.003 790.878C221.003 785.839 223.01 781.679 227.023 778.398C231.066 775.087 236.311 773.432 242.756 773.432C247.15 773.432 251.062 774.281 254.489 775.981C257.946 777.68 260.612 780.023 262.487 783.012C264.392 786 265.344 789.267 265.344 792.812H256.862C256.862 788.944 255.632 785.912 253.171 783.715C250.71 781.488 247.238 780.375 242.756 780.375C238.596 780.375 235.344 781.298 233 783.144C230.686 784.96 229.528 787.494 229.528 790.746C229.528 793.354 230.627 795.565 232.824 797.382C235.051 799.169 238.815 800.81 244.118 802.304C249.45 803.798 253.61 805.453 256.599 807.27C259.616 809.057 261.843 811.151 263.278 813.554C264.743 815.956 265.476 818.783 265.476 822.035C265.476 827.221 263.454 831.381 259.411 834.516C255.368 837.621 249.963 839.174 243.195 839.174C238.801 839.174 234.699 838.339 230.891 836.669C227.082 834.97 224.138 832.655 222.058 829.726C220.007 826.796 218.981 823.471 218.981 819.75H227.463C227.463 823.617 228.884 826.679 231.726 828.935C234.597 831.161 238.42 832.274 243.195 832.274C247.648 832.274 251.062 831.366 253.435 829.55C255.808 827.733 256.994 825.258 256.994 822.123C256.994 818.988 255.896 816.571 253.698 814.872C251.501 813.144 247.517 811.444 241.745 809.774ZM323.396 817.992C322.604 824.76 320.1 829.989 315.881 833.681C311.691 837.343 306.11 839.174 299.138 839.174C291.579 839.174 285.515 836.464 280.944 831.044C276.403 825.624 274.133 818.373 274.133 809.291V803.139C274.133 797.191 275.187 791.962 277.297 787.45C279.436 782.939 282.453 779.482 286.35 777.079C290.246 774.648 294.758 773.432 299.885 773.432C306.682 773.432 312.131 775.336 316.232 779.145C320.334 782.924 322.722 788.168 323.396 794.877H314.914C314.182 789.779 312.585 786.088 310.124 783.803C307.692 781.518 304.279 780.375 299.885 780.375C294.494 780.375 290.261 782.367 287.185 786.352C284.138 790.336 282.614 796.005 282.614 803.358V809.555C282.614 816.498 284.064 822.021 286.965 826.122C289.865 830.224 293.923 832.274 299.138 832.274C303.825 832.274 307.414 831.22 309.904 829.11C312.424 826.972 314.094 823.266 314.914 817.992H323.396ZM358.42 812.411H343.391V838.295H334.909V774.311H356.091C363.298 774.311 368.835 775.951 372.702 779.232C376.599 782.514 378.547 787.289 378.547 793.559C378.547 797.543 377.463 801.015 375.295 803.974C373.156 806.933 370.168 809.145 366.33 810.609L381.359 837.768V838.295H372.307L358.42 812.411ZM343.391 805.512H356.354C360.544 805.512 363.869 804.428 366.33 802.26C368.82 800.092 370.065 797.191 370.065 793.559C370.065 789.604 368.879 786.571 366.506 784.462C364.162 782.353 360.764 781.283 356.311 781.254H343.391V805.512ZM399.465 838.295H391.027V774.311H399.465V838.295ZM423.371 813.246V838.295H414.934V774.311H438.532C445.534 774.311 451.013 776.098 454.968 779.672C458.952 783.246 460.944 787.978 460.944 793.866C460.944 800.077 458.996 804.867 455.1 808.236C451.232 811.576 445.681 813.246 438.444 813.246H423.371ZM423.371 806.347H438.532C443.044 806.347 446.501 805.292 448.903 803.183C451.306 801.044 452.507 797.968 452.507 793.954C452.507 790.146 451.306 787.099 448.903 784.814C446.501 782.528 443.205 781.342 439.016 781.254H423.371V806.347ZM515.92 781.254H495.354V838.295H486.96V781.254H466.437V774.311H515.92V781.254ZM50.7148 1306.25H30.1484L30.1484 1363.29H21.7549L21.7549 1306.25H1.23242L1.23242 1299.31H50.7148V1306.25ZM80.4219 1331.43L97.1211 1299.31H106.701L84.6406 1339.43V1363.29H76.2031V1339.43L54.1426 1299.31H63.8105L80.4219 1331.43ZM123.4 1338.25V1363.29H114.963V1299.31H138.562C145.563 1299.31 151.042 1301.1 154.997 1304.67C158.981 1308.25 160.974 1312.98 160.974 1318.87C160.974 1325.08 159.025 1329.87 155.129 1333.24C151.262 1336.58 145.71 1338.25 138.474 1338.25H123.4ZM123.4 1331.35H138.562C143.073 1331.35 146.53 1330.29 148.933 1328.18C151.335 1326.04 152.536 1322.97 152.536 1318.95C152.536 1315.15 151.335 1312.1 148.933 1309.81C146.53 1307.53 143.234 1306.34 139.045 1306.25H123.4V1331.35ZM207.907 1333.72H180.178V1356.4H212.39V1363.29H171.74V1299.31H211.95V1306.25H180.178V1326.82H207.907V1333.72ZM241.745 1334.77C234.509 1332.69 229.235 1330.15 225.925 1327.13C222.644 1324.08 221.003 1320.33 221.003 1315.88C221.003 1310.84 223.01 1306.68 227.023 1303.4C231.066 1300.09 236.311 1298.43 242.756 1298.43C247.15 1298.43 251.062 1299.28 254.489 1300.98C257.946 1302.68 260.612 1305.02 262.487 1308.01C264.392 1311 265.344 1314.27 265.344 1317.81H256.862C256.862 1313.94 255.632 1310.91 253.171 1308.71C250.71 1306.49 247.238 1305.38 242.756 1305.38C238.596 1305.38 235.344 1306.3 233 1308.14C230.686 1309.96 229.528 1312.49 229.528 1315.75C229.528 1318.35 230.627 1320.57 232.824 1322.38C235.051 1324.17 238.815 1325.81 244.118 1327.3C249.45 1328.8 253.61 1330.45 256.599 1332.27C259.616 1334.06 261.843 1336.15 263.278 1338.55C264.743 1340.96 265.476 1343.78 265.476 1347.04C265.476 1352.22 263.454 1356.38 259.411 1359.52C255.368 1362.62 249.963 1364.17 243.195 1364.17C238.801 1364.17 234.699 1363.34 230.891 1361.67C227.082 1359.97 224.138 1357.66 222.058 1354.73C220.007 1351.8 218.981 1348.47 218.981 1344.75H227.463C227.463 1348.62 228.884 1351.68 231.726 1353.93C234.597 1356.16 238.42 1357.27 243.195 1357.27C247.648 1357.27 251.062 1356.37 253.435 1354.55C255.808 1352.73 256.994 1350.26 256.994 1347.12C256.994 1343.99 255.896 1341.57 253.698 1339.87C251.501 1338.14 247.517 1336.44 241.745 1334.77ZM323.396 1342.99C322.604 1349.76 320.1 1354.99 315.881 1358.68C311.691 1362.34 306.11 1364.17 299.138 1364.17C291.579 1364.17 285.515 1361.46 280.944 1356.04C276.403 1350.62 274.133 1343.37 274.133 1334.29V1328.14C274.133 1322.19 275.187 1316.96 277.297 1312.45C279.436 1307.94 282.453 1304.48 286.35 1302.08C290.246 1299.65 294.758 1298.43 299.885 1298.43C306.682 1298.43 312.131 1300.34 316.232 1304.14C320.334 1307.92 322.722 1313.17 323.396 1319.88H314.914C314.182 1314.78 312.585 1311.09 310.124 1308.8C307.692 1306.52 304.279 1305.38 299.885 1305.38C294.494 1305.38 290.261 1307.37 287.185 1311.35C284.138 1315.34 282.614 1321 282.614 1328.36V1334.55C282.614 1341.5 284.064 1347.02 286.965 1351.12C289.865 1355.22 293.923 1357.27 299.138 1357.27C303.825 1357.27 307.414 1356.22 309.904 1354.11C312.424 1351.97 314.094 1348.27 314.914 1342.99H323.396ZM358.42 1337.41H343.391V1363.29H334.909V1299.31H356.091C363.298 1299.31 368.835 1300.95 372.702 1304.23C376.599 1307.51 378.547 1312.29 378.547 1318.56C378.547 1322.54 377.463 1326.01 375.295 1328.97C373.156 1331.93 370.168 1334.14 366.33 1335.61L381.359 1362.77V1363.29H372.307L358.42 1337.41ZM343.391 1330.51H356.354C360.544 1330.51 363.869 1329.43 366.33 1327.26C368.82 1325.09 370.065 1322.19 370.065 1318.56C370.065 1314.6 368.879 1311.57 366.506 1309.46C364.162 1307.35 360.764 1306.28 356.311 1306.25H343.391V1330.51ZM399.465 1363.29H391.027V1299.31H399.465V1363.29ZM423.371 1338.25V1363.29H414.934V1299.31H438.532C445.534 1299.31 451.013 1301.1 454.968 1304.67C458.952 1308.25 460.944 1312.98 460.944 1318.87C460.944 1325.08 458.996 1329.87 455.1 1333.24C451.232 1336.58 445.681 1338.25 438.444 1338.25H423.371ZM423.371 1331.35H438.532C443.044 1331.35 446.501 1330.29 448.903 1328.18C451.306 1326.04 452.507 1322.97 452.507 1318.95C452.507 1315.15 451.306 1312.1 448.903 1309.81C446.501 1307.53 443.205 1306.34 439.016 1306.25H423.371V1331.35ZM515.92 1306.25H495.354V1363.29H486.96V1306.25H466.437V1299.31H515.92V1306.25Z" fill="#007ACC"/>
<path d="M220.388 712.992C219.597 719.76 217.092 724.989 212.873 728.681C208.684 732.343 203.103 734.174 196.13 734.174C188.571 734.174 182.507 731.464 177.937 726.044C173.396 720.624 171.125 713.373 171.125 704.291V698.139C171.125 692.191 172.18 686.962 174.289 682.45C176.428 677.939 179.445 674.482 183.342 672.079C187.238 669.648 191.75 668.432 196.877 668.432C203.674 668.432 209.123 670.336 213.225 674.145C217.326 677.924 219.714 683.168 220.388 689.877H211.906C211.174 684.779 209.577 681.088 207.116 678.803C204.685 676.518 201.271 675.375 196.877 675.375C191.486 675.375 187.253 677.367 184.177 681.352C181.13 685.336 179.606 691.005 179.606 698.358V704.555C179.606 711.498 181.057 717.021 183.957 721.122C186.857 725.224 190.915 727.274 196.13 727.274C200.817 727.274 204.406 726.22 206.896 724.11C209.416 721.972 211.086 718.266 211.906 712.992H220.388ZM250.798 704.774C243.562 702.694 238.288 700.146 234.978 697.128C231.696 694.081 230.056 690.331 230.056 685.878C230.056 680.839 232.062 676.679 236.076 673.398C240.119 670.087 245.363 668.432 251.809 668.432C256.203 668.432 260.114 669.281 263.542 670.981C266.999 672.68 269.665 675.023 271.54 678.012C273.444 681 274.396 684.267 274.396 687.812H265.915C265.915 683.944 264.685 680.912 262.224 678.715C259.763 676.488 256.291 675.375 251.809 675.375C247.648 675.375 244.396 676.298 242.053 678.144C239.738 679.96 238.581 682.494 238.581 685.746C238.581 688.354 239.68 690.565 241.877 692.382C244.104 694.169 247.868 695.81 253.171 697.304C258.503 698.798 262.663 700.453 265.651 702.27C268.669 704.057 270.896 706.151 272.331 708.554C273.796 710.956 274.528 713.783 274.528 717.035C274.528 722.221 272.507 726.381 268.464 729.516C264.421 732.621 259.016 734.174 252.248 734.174C247.854 734.174 243.752 733.339 239.943 731.669C236.135 729.97 233.19 727.655 231.11 724.726C229.06 721.796 228.034 718.471 228.034 714.75H236.516C236.516 718.617 237.937 721.679 240.778 723.935C243.649 726.161 247.473 727.274 252.248 727.274C256.701 727.274 260.114 726.366 262.487 724.55C264.86 722.733 266.047 720.258 266.047 717.123C266.047 713.988 264.948 711.571 262.751 709.872C260.554 708.144 256.569 706.444 250.798 704.774ZM304.235 704.774C296.999 702.694 291.726 700.146 288.415 697.128C285.134 694.081 283.493 690.331 283.493 685.878C283.493 680.839 285.5 676.679 289.514 673.398C293.557 670.087 298.801 668.432 305.246 668.432C309.641 668.432 313.552 669.281 316.979 670.981C320.437 672.68 323.103 675.023 324.978 678.012C326.882 681 327.834 684.267 327.834 687.812H319.353C319.353 683.944 318.122 680.912 315.661 678.715C313.2 676.488 309.729 675.375 305.246 675.375C301.086 675.375 297.834 676.298 295.49 678.144C293.176 679.96 292.019 682.494 292.019 685.746C292.019 688.354 293.117 690.565 295.314 692.382C297.541 694.169 301.306 695.81 306.608 697.304C311.94 698.798 316.101 700.453 319.089 702.27C322.106 704.057 324.333 706.151 325.769 708.554C327.233 710.956 327.966 713.783 327.966 717.035C327.966 722.221 325.944 726.381 321.901 729.516C317.858 732.621 312.453 734.174 305.686 734.174C301.291 734.174 297.189 733.339 293.381 731.669C289.572 729.97 286.628 727.655 284.548 724.726C282.497 721.796 281.472 718.471 281.472 714.75H289.953C289.953 718.617 291.374 721.679 294.216 723.935C297.087 726.161 300.91 727.274 305.686 727.274C310.139 727.274 313.552 726.366 315.925 724.55C318.298 722.733 319.484 720.258 319.484 717.123C319.484 713.988 318.386 711.571 316.188 709.872C313.991 708.144 310.007 706.444 304.235 704.774ZM348.532 697.348H354.641C358.479 697.289 361.496 696.278 363.693 694.315C365.891 692.353 366.989 689.701 366.989 686.361C366.989 678.861 363.254 675.111 355.783 675.111C352.268 675.111 349.455 676.122 347.346 678.144C345.266 680.136 344.226 682.787 344.226 686.098H336.096C336.096 681.029 337.941 676.825 341.633 673.485C345.354 670.116 350.07 668.432 355.783 668.432C361.818 668.432 366.55 670.028 369.978 673.222C373.405 676.415 375.119 680.854 375.119 686.537C375.119 689.32 374.211 692.016 372.395 694.623C370.607 697.231 368.161 699.179 365.056 700.468C368.571 701.581 371.281 703.427 373.186 706.005C375.119 708.583 376.086 711.732 376.086 715.453C376.086 721.195 374.211 725.751 370.461 729.12C366.711 732.489 361.833 734.174 355.827 734.174C349.821 734.174 344.929 732.548 341.149 729.296C337.399 726.044 335.524 721.752 335.524 716.42H343.698C343.698 719.789 344.797 722.484 346.994 724.506C349.191 726.527 352.136 727.538 355.827 727.538C359.753 727.538 362.756 726.513 364.836 724.462C366.916 722.411 367.956 719.467 367.956 715.629C367.956 711.908 366.813 709.052 364.528 707.06C362.243 705.067 358.947 704.042 354.641 703.983H348.532V697.348ZM220.388 1237.99C219.597 1244.76 217.092 1249.99 212.873 1253.68C208.684 1257.34 203.103 1259.17 196.13 1259.17C188.571 1259.17 182.507 1256.46 177.937 1251.04C173.396 1245.62 171.125 1238.37 171.125 1229.29V1223.14C171.125 1217.19 172.18 1211.96 174.289 1207.45C176.428 1202.94 179.445 1199.48 183.342 1197.08C187.238 1194.65 191.75 1193.43 196.877 1193.43C203.674 1193.43 209.123 1195.34 213.225 1199.14C217.326 1202.92 219.714 1208.17 220.388 1214.88H211.906C211.174 1209.78 209.577 1206.09 207.116 1203.8C204.685 1201.52 201.271 1200.38 196.877 1200.38C191.486 1200.38 187.253 1202.37 184.177 1206.35C181.13 1210.34 179.606 1216 179.606 1223.36V1229.55C179.606 1236.5 181.057 1242.02 183.957 1246.12C186.857 1250.22 190.915 1252.27 196.13 1252.27C200.817 1252.27 204.406 1251.22 206.896 1249.11C209.416 1246.97 211.086 1243.27 211.906 1237.99H220.388ZM250.798 1229.77C243.562 1227.69 238.288 1225.15 234.978 1222.13C231.696 1219.08 230.056 1215.33 230.056 1210.88C230.056 1205.84 232.062 1201.68 236.076 1198.4C240.119 1195.09 245.363 1193.43 251.809 1193.43C256.203 1193.43 260.114 1194.28 263.542 1195.98C266.999 1197.68 269.665 1200.02 271.54 1203.01C273.444 1206 274.396 1209.27 274.396 1212.81H265.915C265.915 1208.94 264.685 1205.91 262.224 1203.71C259.763 1201.49 256.291 1200.38 251.809 1200.38C247.648 1200.38 244.396 1201.3 242.053 1203.14C239.738 1204.96 238.581 1207.49 238.581 1210.75C238.581 1213.35 239.68 1215.57 241.877 1217.38C244.104 1219.17 247.868 1220.81 253.171 1222.3C258.503 1223.8 262.663 1225.45 265.651 1227.27C268.669 1229.06 270.896 1231.15 272.331 1233.55C273.796 1235.96 274.528 1238.78 274.528 1242.04C274.528 1247.22 272.507 1251.38 268.464 1254.52C264.421 1257.62 259.016 1259.17 252.248 1259.17C247.854 1259.17 243.752 1258.34 239.943 1256.67C236.135 1254.97 233.19 1252.66 231.11 1249.73C229.06 1246.8 228.034 1243.47 228.034 1239.75H236.516C236.516 1243.62 237.937 1246.68 240.778 1248.93C243.649 1251.16 247.473 1252.27 252.248 1252.27C256.701 1252.27 260.114 1251.37 262.487 1249.55C264.86 1247.73 266.047 1245.26 266.047 1242.12C266.047 1238.99 264.948 1236.57 262.751 1234.87C260.554 1233.14 256.569 1231.44 250.798 1229.77ZM304.235 1229.77C296.999 1227.69 291.726 1225.15 288.415 1222.13C285.134 1219.08 283.493 1215.33 283.493 1210.88C283.493 1205.84 285.5 1201.68 289.514 1198.4C293.557 1195.09 298.801 1193.43 305.246 1193.43C309.641 1193.43 313.552 1194.28 316.979 1195.98C320.437 1197.68 323.103 1200.02 324.978 1203.01C326.882 1206 327.834 1209.27 327.834 1212.81H319.353C319.353 1208.94 318.122 1205.91 315.661 1203.71C313.2 1201.49 309.729 1200.38 305.246 1200.38C301.086 1200.38 297.834 1201.3 295.49 1203.14C293.176 1204.96 292.019 1207.49 292.019 1210.75C292.019 1213.35 293.117 1215.57 295.314 1217.38C297.541 1219.17 301.306 1220.81 306.608 1222.3C311.94 1223.8 316.101 1225.45 319.089 1227.27C322.106 1229.06 324.333 1231.15 325.769 1233.55C327.233 1235.96 327.966 1238.78 327.966 1242.04C327.966 1247.22 325.944 1251.38 321.901 1254.52C317.858 1257.62 312.453 1259.17 305.686 1259.17C301.291 1259.17 297.189 1258.34 293.381 1256.67C289.572 1254.97 286.628 1252.66 284.548 1249.73C282.497 1246.8 281.472 1243.47 281.472 1239.75H289.953C289.953 1243.62 291.374 1246.68 294.216 1248.93C297.087 1251.16 300.91 1252.27 305.686 1252.27C310.139 1252.27 313.552 1251.37 315.925 1249.55C318.298 1247.73 319.484 1245.26 319.484 1242.12C319.484 1238.99 318.386 1236.57 316.188 1234.87C313.991 1233.14 310.007 1231.44 304.235 1229.77ZM348.532 1222.35H354.641C358.479 1222.29 361.496 1221.28 363.693 1219.32C365.891 1217.35 366.989 1214.7 366.989 1211.36C366.989 1203.86 363.254 1200.11 355.783 1200.11C352.268 1200.11 349.455 1201.12 347.346 1203.14C345.266 1205.14 344.226 1207.79 344.226 1211.1H336.096C336.096 1206.03 337.941 1201.83 341.633 1198.49C345.354 1195.12 350.07 1193.43 355.783 1193.43C361.818 1193.43 366.55 1195.03 369.978 1198.22C373.405 1201.42 375.119 1205.85 375.119 1211.54C375.119 1214.32 374.211 1217.02 372.395 1219.62C370.607 1222.23 368.161 1224.18 365.056 1225.47C368.571 1226.58 371.281 1228.43 373.186 1231C375.119 1233.58 376.086 1236.73 376.086 1240.45C376.086 1246.2 374.211 1250.75 370.461 1254.12C366.711 1257.49 361.833 1259.17 355.827 1259.17C349.821 1259.17 344.929 1257.55 341.149 1254.3C337.399 1251.04 335.524 1246.75 335.524 1241.42H343.698C343.698 1244.79 344.797 1247.48 346.994 1249.51C349.191 1251.53 352.136 1252.54 355.827 1252.54C359.753 1252.54 362.756 1251.51 364.836 1249.46C366.916 1247.41 367.956 1244.47 367.956 1240.63C367.956 1236.91 366.813 1234.05 364.528 1232.06C362.243 1230.07 358.947 1229.04 354.641 1228.98H348.532V1222.35Z" fill="#060606"/>
</svg>
